<svg width="381" height="358" viewBox="0 0 381 358" fill="none" xmlns="http://www.w3.org/2000/svg">
<path fill-rule="evenodd" clip-rule="evenodd" d="M19.6842 225.77C16.3406 224.024 13.0757 222.128 9.86343 220.154C7.59982 218.799 9.60385 215.387 11.9246 216.62C13.1113 217.25 14.2933 217.887 15.4799 218.514C14.5452 217.709 13.6799 216.833 12.9042 215.88L12.9583 215.826C9.96695 213.145 13.8097 208.086 17.2105 210.288C20.2111 212.464 23.2395 214.684 26.6836 216.116C33.8159 219.142 41.6837 219.642 49.3397 219.73C52.1426 219.52 54.8187 220.005 57.5366 220.546C56.4705 216.269 53.8036 213.038 52.3882 208.896C51.3453 204.713 57.3805 201.864 59.519 205.885C60.0443 206.872 60.545 207.872 61.0332 208.874C65.6562 213.082 73.3756 212.711 78.0388 217.227C80.6949 219.585 81.9943 222.785 82.5073 225.996C82.8565 228.176 82.3141 230.362 83.6321 232.294C90.0042 241.31 100.071 255.56 105.185 265.481C108.804 241.904 118.47 212.743 128.456 191.184C131.758 184.29 135.536 177.553 140.496 171.708C139.933 169.76 141.917 166.3 143.18 167.365C147.062 162.62 153.927 161.39 159.448 159.03C166.899 155.843 173.082 149.217 176.12 141.688C180.026 127.348 189.638 125.526 202.97 126.159C215.728 126.144 225.167 131.603 227.951 144.596C233.606 154.457 246.959 152.825 256.566 155.436C263.607 157.045 270.439 159.532 276.933 162.691C284.156 155.837 310.028 184.605 312.38 192.008C310.995 192.277 309.619 192.6 308.256 192.994C307.041 193.344 307.551 195.18 308.776 194.886C310.3 194.52 311.834 194.268 313.375 194.094C313.422 194.24 313.463 194.387 313.494 194.533C313.667 194.52 313.84 194.505 314.013 194.494C313.629 194.693 313.26 194.925 312.9 195.225C312.03 195.946 313.163 197.34 314.087 196.765C314.957 196.113 316.098 196.217 317.142 195.997C317.204 198.145 324.866 195.742 326.056 195.03C331.346 194.369 336.788 195.079 341.726 192.527C348.297 191.143 354.917 189.611 361.414 187.848C363.134 188.519 364.751 190.92 363.385 192.681C362.616 193.483 363.604 194.792 364.572 194.222C367.817 192.311 370.326 189.329 372.454 186.115C373.456 185.104 375.233 185.322 376.579 184.902C376.759 185.225 376.865 185.586 376.863 185.956C382.571 186.895 378.499 193.131 375.63 195.075C377.152 196.067 377.21 198.007 377.077 199.63C377.399 200.206 377.507 200.923 377.226 201.569C376.153 204.044 373.832 206.127 372.067 208.133C370.118 210.347 368.38 212.572 366.009 214.367C356.971 221.26 346.063 225.112 334.874 226.62C330.901 227.23 325.186 228.165 322.726 231.526C323.33 235.514 324.438 239.339 325.443 243.229C326.849 248.392 326.754 253.797 326.772 259.06C326.969 258.902 327.346 258.935 327.402 259.236C327.729 261.418 327.973 263.649 329.298 265.481C330.46 268.891 331.234 272.527 331.668 276.109C333.409 293.088 333.824 310.57 329.9 327.285C328.385 333.485 325.923 339.378 322.567 344.805C321.566 346.424 319.958 346.898 318.513 346.58C313.679 349.092 307.588 349.897 302.378 349.259C284.613 344.228 290.803 356.344 265.895 352.634C222.902 347.155 179.451 357.921 136.549 351.6C135.493 359.765 121.661 357.422 116.855 353.97C102.449 343.257 95.2947 309.335 88.0651 292.127C83.0944 278.562 74.7724 254.54 63.8747 245.438C60.6068 242.881 56.6559 241.535 52.7034 240.449C37.9522 236.646 23.1453 233.051 8.36621 229.353C5.86002 228.735 6.30963 224.46 8.99042 224.733C12.5473 225.098 16.1165 225.427 19.6842 225.77Z" fill="white"/>
<path fill-rule="evenodd" clip-rule="evenodd" d="M348.06 223.227C349.059 223.103 350.038 222.748 351.011 222.467C352.497 222.033 353.952 221.526 355.385 220.948C358.343 219.763 361.212 218.361 363.902 216.648C368.247 213.874 372.086 210.322 374.981 206.044L375.18 205.745C376.833 203.227 379.882 197.634 376.463 195.721C378.667 193.879 380.749 190.571 380.632 188.018C380.465 184.406 376.039 184.455 373.751 185.986C372.252 186.989 371.129 188.394 370.003 189.775C368.756 191.309 367.424 192.773 366.04 194.18C365.673 194.553 365.302 194.917 364.925 195.276L364.545 195.633C364.604 195.492 364.656 195.348 364.702 195.202C365.466 192.822 364.555 189.723 362.175 188.632C360.719 187.964 359.207 188.372 357.795 188.938L357.579 189.027C355.679 189.814 353.757 190.509 351.778 191.068C343.715 193.344 335.3 193.723 327.038 194.859C323.855 195.3 320.614 195.855 317.447 196.671C316.24 191.541 313.279 186.623 310.067 182.578C294.685 163.222 269.318 156.824 246.112 152.684C243.997 152.309 242.244 155.11 241.012 154.447C238.679 153.193 236.625 151.416 234.824 149.486C230.981 145.368 228.256 140.526 225.054 135.937C223.47 133.672 219.827 135.699 221.296 138.133L222.016 139.321C224.978 144.191 228.26 149.211 232.509 152.987C234.768 154.993 237.274 156.577 240.141 157.566C242.312 158.313 245.358 158.944 247.734 158.219L248.019 157.803C247.925 157.943 247.83 158.08 247.734 158.219C241.531 167.209 233.75 174.818 225.55 181.998C217.273 189.244 208.344 195.73 199.362 202.074L198.612 202.601C183.979 191.924 171.616 177.995 162.943 162.082C164.76 161.862 166.56 160.697 168.113 159.829C169.984 158.777 171.743 157.524 173.115 155.852C176.102 152.21 175.712 147.518 176.251 143.099C176.284 142.825 175.922 142.756 175.755 142.893C174.136 144.239 173.568 146.444 172.892 148.347C172.148 150.439 171.306 152.165 169.598 153.638C168.01 155.008 166.071 156.017 164.187 156.917C163.215 157.377 158.393 158.561 157.844 159.542C149.513 157.586 141.398 160.965 135.225 166.668C129.261 172.176 124.884 179.338 121.02 186.408C116.896 193.952 113.518 201.815 110.605 209.897C107.654 218.1 105.392 226.484 104.148 235.118C103.099 242.397 102.455 249.791 102.039 257.152L101.988 258.071C95.8248 248.395 89.5084 238.82 83.0606 229.33C84.5269 225.415 82.9045 221.418 80.1589 218.394C77.1165 215.047 72.9091 213.493 68.8841 211.683L68.3557 211.444C66.415 210.559 64.4821 209.584 62.8056 208.258C61.194 206.978 60.0089 205.214 58.3109 204.035C55.8433 202.318 51.364 202.683 51.2496 206.436C51.1909 208.497 52.0763 210.756 52.8859 212.607C53.8037 214.701 55.0398 216.598 56.5092 218.343C56.5772 218.423 56.6514 218.488 56.7271 218.539L56.7827 218.575C54.7524 218.91 52.7067 219.182 50.6208 219.276C46.4119 219.469 42.1597 219.159 38.0388 218.27C33.8222 217.363 29.7354 215.886 25.9421 213.83C22.7004 212.073 19.6967 209.8 16.0147 209.264C15.6763 209.211 15.3333 209.179 14.981 209.159C14.3924 209.126 13.8052 209.818 14.037 210.399C14.1637 210.721 14.2981 211.037 14.4449 211.357C15.7181 214.162 17.6711 216.883 20.1062 218.949L20.2947 219.106C19.4356 218.809 18.5904 218.476 17.7576 218.1C12.8642 215.897 8.42508 212.566 3.17938 211.226C2.93216 211.161 2.68033 211.102 2.42847 211.047C0.806091 210.698 -0.0483398 212.461 0.904999 213.669C1.05795 213.865 1.21091 214.058 1.37161 214.25C3.71094 217.156 6.29434 219.854 9.14044 222.277C10.1169 223.106 11.1213 223.91 12.1472 224.678C12.5783 225.002 13.0125 225.321 13.4514 225.634L13.6677 225.787C13.1562 225.426 12.6494 225.056 12.1472 224.678C8.93494 223.704 5.76901 222.552 2.67105 221.275C1.43958 220.769 0.483185 222.016 0.353394 223.042C-0.0854187 226.476 3.72791 228.962 6.20938 230.614C8.69702 232.274 11.435 233.534 14.2393 234.547C19.6303 236.495 25.2932 237.38 30.9467 238.173L33.6924 238.556C44.5623 240.076 55.9144 241.895 63.7141 250.355C68.0853 255.097 71.0426 260.988 73.7481 266.784C76.4506 272.575 78.8239 278.518 81.0767 284.494C83.4113 290.679 85.4447 296.979 87.6048 303.226C89.5903 308.961 91.9605 314.624 94.3091 320.23L94.6783 321.115C99.6645 333.028 105.618 344.249 113.915 354.195C115.284 355.837 117.494 353.507 116.23 351.88C107.551 340.686 101.511 327.476 96.5263 314.299C94.2581 308.303 92.3576 302.164 90.1774 296.135L88.8795 292.555C87.1474 287.781 85.3999 283.012 83.5767 278.277C81.2698 272.283 78.7327 266.364 75.831 260.634L75.5235 260.032C72.682 254.506 69.3059 249.06 64.6598 244.879C56.2976 237.348 45.1711 235.542 34.4109 234.111L31.0271 233.664C26.4783 233.06 21.9171 232.393 17.4934 231.177C14.9408 230.477 12.447 229.582 10.1031 228.347C9.1698 227.858 8.25821 227.32 7.3775 226.731C9.89142 227.47 12.4408 228.074 15.0351 228.547C16.3052 228.779 17.5629 228.952 18.816 229.074C22.0438 229.394 25.2468 229.38 28.5534 229.207C28.8346 229.19 28.9257 228.749 28.6244 228.694C26.3222 228.284 24.0169 227.773 21.7209 227.216L21.0317 227.048C21.0193 226.666 20.8695 226.262 20.5558 225.877C19.4124 224.485 17.2431 223.772 15.7381 222.79C14.1606 221.761 12.6324 220.651 11.1769 219.461C9.84503 218.375 8.56567 217.226 7.33575 216.024L6.96646 215.66C7.08853 215.783 7.21216 215.903 7.33575 216.024C10.6578 217.559 13.8083 219.528 17.2786 220.742C20.0367 221.713 22.9291 222.365 25.8478 222.597L26.0286 222.612L26.2094 222.623C29.2549 222.842 32.3204 222.754 35.321 223.414C35.6563 223.488 35.7614 223.038 35.4601 222.91C32.8395 221.819 30.1139 221.399 27.359 220.889C27.3003 220.674 27.1504 220.481 26.8893 220.358L26.1832 220.021C24.0849 219.012 22.1272 217.994 20.3828 216.357C18.8423 214.91 17.5583 213.219 16.5957 211.343C20.4507 212.19 23.8361 215.112 27.342 216.754C31.1616 218.548 35.2036 219.834 39.3553 220.566L39.8281 220.648C47.5877 221.943 56.9187 221.778 63.8702 217.742C64.0927 217.61 63.932 217.314 63.7033 217.349C61.7317 217.672 59.7803 218.055 57.8272 218.394C58.2104 218.045 58.3803 217.417 57.9384 216.915C56.1863 214.905 54.7988 212.607 53.9134 210.093L53.7435 209.602C53.3356 208.436 52.6449 206.626 53.3495 205.574C54.0216 204.571 55.6053 204.709 56.551 205.132C58.5194 206.02 59.8297 208.239 61.4876 209.577C63.2954 211.041 65.352 212.124 67.458 213.094L67.903 213.296C71.5448 214.936 75.4354 216.314 78.2985 219.208C79.839 220.762 81.1647 222.705 81.6082 224.883C81.8106 225.883 81.8106 226.911 81.5433 227.901C81.3316 228.675 80.8866 229.151 81.1415 229.939C81.4753 230.954 82.6526 232.169 83.2599 233.074C83.966 234.119 84.6675 235.166 85.369 236.215C86.7689 238.312 88.1641 240.415 89.5578 242.515C92.3452 246.721 95.1032 250.946 97.8397 255.185C98.7296 256.564 99.6165 257.947 100.5 259.33L101.825 261.405L102.524 262.501L103.717 264.377C103.676 264.551 103.679 264.734 103.734 264.893C103.938 265.474 104.318 265.869 104.793 266.157L104.876 266.206C111.843 277.221 118.699 288.307 125.622 299.349C125.99 302.719 126.336 306.092 126.638 309.466C127.319 317.101 127.786 324.755 127.936 332.419C128.008 336.13 127.711 339.862 127.551 343.569C127.472 345.338 127.365 347.104 127.225 348.872L127.123 350.123C126.985 351.843 126.906 353.552 127.525 355.191C128.073 356.631 129.745 356.954 130.734 355.857C143.637 355.338 156.551 354.942 169.465 354.698C192.58 354.253 215.705 354.323 238.823 354.769C250.434 354.995 262.048 355.312 273.656 355.704C279.375 355.893 285.098 356.161 290.82 356.239C293.903 356.282 298.756 355.159 299.004 351.688L299.01 351.583C299.396 351.687 299.794 351.772 300.202 351.834C300.383 351.861 300.558 351.854 300.719 351.817L300.799 351.795C305.395 353.196 311.208 351.197 315.575 350.032L315.936 349.936C320.105 348.85 323.454 347.294 326.186 343.839C330.968 337.788 332.6 329.664 333.449 322.175C334.246 315.128 334.291 307.951 333.322 300.917C333.893 295.186 333.335 289.272 332.685 283.573C332.365 280.755 331.99 277.94 331.539 275.138C331.288 273.573 330.959 272.025 330.622 270.481C330.488 269.863 330.376 269.199 330.206 268.556L330.129 268.283C330.652 268.352 331.223 268.238 331.775 267.933C333.087 267.212 333.469 265.752 333.492 264.355C333.563 260.141 333.061 255.809 332.617 251.622C332.17 247.442 331.556 243.246 330.753 239.119L330.545 238.054C329.937 234.965 329.24 231.778 328.014 228.877C332.62 228.094 337.213 227.261 341.682 225.843C343.862 225.148 346.01 224.282 348.06 223.227ZM107.654 267.068C107.727 267.085 107.795 267.104 107.864 267.124C109.705 267.64 111.565 268.077 113.419 268.548C116.625 269.355 119.759 270.256 122.739 271.657C123.364 279.54 124.289 287.397 125.17 295.259L125.344 296.832C123.992 294.323 122.609 291.835 121.163 289.377C116.76 281.881 112.254 274.446 107.654 267.068ZM329.007 267.849C328.997 268.786 329.193 269.76 329.297 270.661C329.467 272.124 329.604 273.593 329.777 275.056C330.13 277.995 330.43 280.937 330.649 283.89C330.789 285.773 330.88 287.665 330.962 289.556C329.111 282.635 326.66 275.866 324.329 269.086C324.718 269.046 325.117 268.95 325.527 268.84L326.219 268.655C326.627 268.55 327.95 268.224 329.007 267.849ZM101.825 261.405L101.812 261.716C101.763 262.816 102.422 263.437 103.221 263.596C102.758 262.865 102.291 262.135 101.825 261.405ZM313.615 209.248C311.667 209.42 309.757 209.835 307.936 210.554L307.76 210.622C306.413 211.143 304.443 211.796 304.002 213.235C303.878 213.643 304.211 213.979 304.593 214.012C306.055 214.129 307.779 212.563 309.134 212.033C310.642 211.445 312.222 211.007 313.821 210.775C317.415 210.249 321.163 210.648 324.545 211.958C324.744 212.036 324.868 211.719 324.688 211.625C321.28 209.769 317.49 208.905 313.615 209.248ZM354.912 218.587C355.137 218.388 355.362 218.179 355.584 217.97C357.335 216.314 358.884 214.381 360.032 212.257L360.334 211.682C361.269 209.871 362.416 207.292 360.22 205.988C358.908 205.208 357.328 205.404 355.865 205.877C355.771 205.906 355.676 205.94 355.581 205.973C354.928 206.201 354.298 206.475 353.737 206.736C351.298 207.856 349.147 209.486 346.895 210.923C344.454 212.481 342.044 213.477 339.228 214.06L338.962 214.114C336.318 214.636 333.452 214.971 331.608 217.147C331.144 217.695 331.569 218.724 332.368 218.453C337.467 216.733 342.863 216.353 347.544 213.528C349.483 212.36 351.318 211.017 353.299 209.91C354.351 209.322 355.436 208.808 356.592 208.456L357.224 208.269C357.594 208.16 358.036 208.054 358.333 208.16C358.898 208.357 358.718 208.66 358.543 209.186L358.526 209.241C357.151 213.493 353.234 217.053 349.604 219.407C348.772 219.948 347.92 220.446 347.052 220.906C341.174 224.04 334.597 225.498 328.138 227.23C328.138 227.23 324.403 228.273 323.166 228.664C321.789 228.55 320.219 229.037 319.181 229.619C318.172 230.183 317.359 230.942 316.745 231.833C316.745 231.833 316.154 232.326 316.047 233.089C315.737 233.799 315.528 234.562 315.423 235.359C315.365 235.826 315.482 236.186 315.704 236.439C315.036 246.691 317.804 256.886 320.925 266.628L321.234 267.589L321.433 268.198C324.798 278.527 328.66 288.782 330.384 299.551C331.536 306.745 331.5 314.191 330.655 321.418L330.595 321.917C329.762 328.749 328.159 336.415 323.816 341.914C321.6 344.72 318.976 345.967 315.62 346.871L315.436 346.92C312.4 347.719 309.267 348.853 306.136 349.196C303.231 349.513 300.796 348.431 298.181 347.419L298.178 347.416C292.671 342.54 290.17 335.441 288.323 328.275C283.534 309.734 284.128 290.486 286.844 271.673C288.261 261.844 290.187 252.099 292.106 242.357C293.066 237.488 294.101 232.629 294.959 227.743L295.469 224.869C295.75 223.272 296.022 221.673 296.255 220.067C296.568 217.909 296.663 215.786 296.771 213.613C299.408 209.241 303.238 205.639 307.674 203.055C310.85 201.204 314.212 199.92 317.682 198.99C327.603 196.316 338.417 196.506 348.4 194.448C351.753 193.757 354.936 192.732 358.118 191.504L358.552 191.336C360.011 190.767 361.499 190.45 362.224 192.172C362.74 193.397 362.433 194.67 361.659 195.699C359.763 198.219 355.95 199.389 353.081 200.296C351.354 200.844 349.591 201.28 347.809 201.603C346.027 201.926 344.238 202.008 342.527 202.638C341.868 202.879 341.737 203.928 342.527 204.114C344.695 204.621 346.875 204.186 349.03 203.765C351.396 203.296 353.727 202.635 355.993 201.795C356.41 201.642 356.843 201.479 357.283 201.306L357.615 201.175C357.272 201.424 356.929 201.668 356.583 201.914C356.492 201.978 356.547 202.152 356.668 202.108C361.995 200.121 366.842 196.533 370.596 192.291L370.783 192.077C372.105 190.562 375.118 185.977 377.658 187.253C380.043 188.451 375.977 193.068 374.432 194.954L374.253 195.175C372.497 195.222 370.796 196.316 369.373 197.198C366.902 198.729 364.32 200.049 361.689 201.283C356.459 203.741 350.907 205.475 345.733 208.059C345.664 208.096 345.716 208.182 345.782 208.173C349.075 207.647 352.333 206.809 355.516 205.767L355.658 205.722L355.8 205.674C357.788 205.021 359.75 204.284 361.679 203.496C363.824 202.621 365.919 201.639 367.953 200.524C369.794 199.519 371.837 197.706 373.972 197.439C374.201 197.41 374.403 197.406 374.58 197.423C377.031 197.629 375.004 201.691 374.318 202.906C373.199 204.9 371.847 206.742 370.297 208.425C367.153 211.841 363.344 214.548 359.221 216.654C357.814 217.372 356.374 218.006 354.912 218.587Z" fill="black"/>
<path fill-rule="evenodd" clip-rule="evenodd" d="M198.307 2.5166C183.691 2.5166 166.157 9.60438 164.666 9.74622L164.626 9.74839C163.841 9.74839 160.776 12.0843 155.431 16.7563L161.221 28.0533L160.752 28.5009C158.509 30.6514 156.596 32.6115 155.085 34.1567C142.749 46.7732 140.531 96.3091 143.438 113.584C146.346 130.86 151.731 147.763 176.8 147.763C201.87 147.763 229.761 132.683 234.056 127.987C236.921 124.857 240.138 123.356 243.708 123.488C243.855 123.302 244.001 123.117 244.146 122.933L244.671 122.859C249.612 122.144 253.152 121.179 255.292 119.968C259.471 117.602 264.065 105.167 264.065 102.428C264.065 99.7161 270.924 79.988 271.061 77.9003L271.063 77.8425C271.063 76.0973 280.024 68.0744 280.024 65.5265C280.024 62.9786 281.831 63.1332 280.024 54.1548L279.5 51.5172C277.578 41.958 273.815 26.129 259.471 19.2509C243.708 11.6926 213.069 2.5166 198.307 2.5166Z" fill="white"/>
<path fill-rule="evenodd" clip-rule="evenodd" d="M261.903 18.896C254.042 10.5485 209.411 -2.36317 186.831 0.373853L186.154 0.461617C184.352 0.69014 182.577 1.0364 180.823 1.50658C175.159 2.83013 169.308 4.83431 164.626 8.18181C160.718 10.9204 148.391 15.3926 152.025 22.5567C150.678 25.1102 150.174 28.2647 151.086 30.7795C151.2 31.6482 151.468 32.4482 151.811 33.2778C148.932 37.5266 146.653 42.3316 144.808 46.9019C141.585 58.4038 139.58 70.3735 139.284 82.108C138.308 104.404 140.751 131.036 160.162 145.452C171.888 154.588 190.255 154.894 203.433 143.567C204.181 142.683 207.698 140.293 206.523 139.874C206.174 140.243 205.816 140.602 205.45 140.955C205.467 140.915 205.47 140.877 205.462 140.833L205.806 140.523C206.454 139.923 207.293 139.053 206.338 139.225C206.295 139.273 206.25 139.316 206.204 139.364C206.001 139.486 205.848 139.591 205.729 139.684L205.669 139.733L205.688 139.713C206.238 139.126 206.568 138.528 205.745 138.91L205.637 138.962C205.27 139.348 204.898 139.718 204.519 140.076C204.526 140.035 204.519 139.991 204.496 139.946L204.85 139.605C205.195 139.267 205.142 139.265 204.974 138.992C205.706 137.966 204.339 138.576 204.243 138.976C203.387 138.774 202.636 140.381 202.084 140.577C177.928 159.154 142.874 142.669 143.441 90.9012L143.45 89.8892C143.617 73.3354 145.009 56.3217 151.852 41.3373C152.518 39.8939 153.263 38.4897 154.082 37.1312C154.646 36.1123 155.25 35.1196 155.901 34.153C157.719 34.006 159.515 33.6729 161.284 33.157C161.891 33.0034 162.491 32.8336 163.092 32.6344C171.866 33.1131 180.445 33.634 189.244 34.1278L191.993 34.299C199.447 34.7784 207.155 35.5462 213.171 40.1584C219.071 44.3574 219.099 52.6373 224.152 57.2474C231.355 62.139 231.408 66.5498 232.795 73.7583C232.693 79.1923 228.926 87.0879 235.837 89.3747C234.671 91.0372 236.296 90.2384 236.425 89.6559C236.439 89.659 236.451 89.662 236.46 89.662C235.422 91.5935 236.95 90.3774 237.084 89.7563C237.166 89.7331 237.248 89.6744 237.328 89.5941C236.282 91.286 237.974 90.1009 237.874 89.7918C239.896 86.6815 244.061 86.1994 246.995 87.023C247.031 87.1342 247.161 87.1435 247.243 87.0848C259.721 89.7903 256.502 115.634 243.714 113.136C243.168 113.023 243.18 113.287 243.072 113.312C243.367 112.536 242.534 112.851 242.543 113.015L242.492 113.012C242.452 113.009 242.468 113.004 242.438 113.015C242.724 111.428 241.117 113.727 241.244 113.822C241.194 113.792 241.139 113.775 241.089 113.769L241.145 113.618C241.412 112.907 241.389 113.202 241.388 112.796C241.587 112.292 241.602 112.513 241.554 112.185C240.851 111.638 240.643 113.295 240.408 113.417C240.811 112.854 240.49 112.395 240.11 112.7C237.23 118.761 233.51 124.455 228.702 128.941C228.175 129.356 227.644 129.764 227.092 130.149C225.048 131.93 221.91 133.077 219.995 134.656C219.995 134.682 220.009 134.715 220.028 134.747L219.985 134.787L219.94 134.829L219.274 135.149C219.078 135.316 218.901 135.501 218.745 135.707C218.578 135.9 218.432 136.111 218.308 136.337C218.246 136.612 218.382 136.726 218.643 136.609C218.759 136.569 218.872 136.524 218.986 136.481C218.98 136.492 218.977 136.498 218.971 136.504C218.932 136.561 218.679 137.148 218.971 137.052L219.006 137.04C219.167 136.981 219.326 136.915 219.482 136.853C219.297 137.085 219.127 137.337 218.977 137.548C218.816 137.715 218.719 137.912 218.68 138.134C218.687 138.258 218.755 138.31 218.88 138.293C219.068 138.231 219.255 138.166 219.441 138.097L219.388 138.199C219.257 138.459 219.07 138.893 219.402 138.747C219.686 138.659 219.96 138.557 220.233 138.448C220.256 138.493 220.303 138.509 220.394 138.466C221.265 138.156 222.108 137.777 222.914 137.331C223.622 136.814 224.337 136.308 225.049 135.795C225.718 135.393 226.364 134.946 226.981 134.443C231.109 131.776 234.723 128.387 237.59 124.614C242.386 128.768 251.972 124.8 257.903 121.547C263.148 118.641 265.21 113.267 265.743 107.473C266.851 99.6729 273.223 97.0029 272.78 79.8876C272.79 79.8907 272.8 79.8907 272.813 79.8907C273.045 79.8227 273.27 79.7316 273.482 79.6141C273.7 79.5091 273.906 79.3855 274.099 79.234L274.337 78.9049C274.461 78.8363 274.572 78.7645 274.657 78.6926L274.701 78.7495C274.84 78.9177 274.747 78.6646 274.738 78.6143L275.152 78.0511C276.134 76.7105 277.211 75.2062 278.088 74.0033L278.116 74.0522C278.135 74.0891 278.146 74.1157 278.137 74.1274C280.224 71.1269 282.187 67.5027 282.733 63.9942C283.377 61.2915 283.125 58.5065 282.563 56.0031C280.155 47.2366 272.264 27.3986 261.903 18.896ZM205.252 140.133L205.383 140.016L205.267 140.161C205.207 140.235 205.145 140.302 205.045 140.37C205.051 140.348 205.051 140.325 205.048 140.299C205.116 140.248 205.184 140.192 205.252 140.133ZM186.931 4.77868C202.243 3.46162 217.304 6.83632 231.916 10.9213L232.925 11.2112C241.233 13.5828 250.018 15.7169 257.039 20.7932C266.849 28.3098 271.914 40.2672 276.335 51.3072C280.195 59.5098 278.222 68.759 272.405 74.4865C271.8 68.7949 270.768 63.2698 269.155 57.7892C268.819 56.9328 269.073 56.6524 268.348 56.5407C267.252 71.3103 272.648 82.2223 261.97 99.727C257.337 107.987 262.7 114.03 249.617 118.377L249.263 118.511C246.537 119.54 243.56 120.353 240.892 119.778L241.129 119.389C241.374 118.987 241.448 118.792 241.094 118.621C241.103 118.602 241.116 118.582 241.129 118.559C241.415 118.017 241.693 117.468 241.958 116.913C242.066 116.949 242.174 116.975 242.285 117.005C242.213 117.139 242.203 117.273 242.406 117.318C243.124 117.565 243.863 117.664 244.62 117.618L244.782 117.606C245.636 117.553 246.174 117.397 246.656 117.253C246.815 117.227 246.975 117.201 247.132 117.168C248.681 116.825 250.321 115.951 251.382 115.085C263.479 108.211 262.229 84.8135 247.318 82.6009C247.012 67.8698 240.008 43.0158 228.384 28.9779C217.877 16.0653 189.192 10.4687 169.235 12.4422C168.943 12.5384 168.653 12.6358 168.362 12.734C165.283 13.0077 162.348 14.3799 159.267 15.0174C161.48 13.3587 163.989 12.254 166.574 11.3152C171.724 8.16358 177.63 6.45823 183.334 5.25551C184.515 4.96487 185.714 4.80479 186.931 4.77868ZM248.001 94.4365C247.199 94.0008 247.291 94.421 247.106 94.299C241.34 93.8277 235.122 98.8787 231.897 103.091C232.152 103.355 232.841 102.572 232.962 102.446C232.979 102.463 232.998 102.476 233.018 102.482L232.928 102.61C231.621 104.484 234.212 102.278 234.453 101.824C234.496 101.845 234.538 101.859 234.587 101.848C234.382 102.051 233.755 102.576 233.648 102.95L233.481 103.088C231.913 104.43 232.044 105.441 233.824 103.534C233.781 103.622 233.765 103.704 233.795 103.769L233.733 103.811C232.858 104.423 232.138 106.127 233.968 104.376C233.778 105.656 235.78 103.183 235.844 103.2C239.311 100.479 244.413 97.8326 248.761 97.4757L248.911 97.4587C249.709 97.3568 250.086 97.1203 249.806 96.5981C250.789 96.3648 250.558 95.8796 250.093 95.8966C250.786 95.4408 250.162 95.0035 249.76 95.1735C250.037 94.4087 248.928 94.9185 248.827 94.8119C248.251 93.9235 248.096 94.6652 248.001 94.4365ZM260.089 46.9705C257.319 45.9555 249.137 48.9939 249.792 53.0177C250.182 53.9417 251.466 54.4708 252.368 53.9494L253.546 53.158C255.597 51.7843 257.445 50.5801 259.647 49.3821C260.845 48.7874 261.36 47.5249 260.089 46.9705ZM244.329 40.9907L245.4 40.2944C251.172 36.5148 259.333 30.788 244.861 36.7131C243.211 37.4207 241.02 37.8395 240.119 39.4109C238.705 42.307 242.426 42.5017 244.329 40.9907ZM243.682 24.0327C244.144 22.2742 238.381 24.3377 236.703 24.8818L236.448 24.9784C234.815 25.5868 232.943 26.1511 231.968 27.5602C230.824 29.5073 233.14 29.9105 234.574 29.0311C237.514 27.1089 240.737 25.6587 243.682 24.0327ZM229.023 15.841C232.268 12.2966 223.586 15.692 222.285 16.6344L222.248 16.6622C221.278 17.3458 221.474 18.818 222.386 19.2503C224.98 19.2996 226.89 17.1364 229.023 15.841ZM214.26 11.9578C219.417 8.24964 212.624 10.0134 210.264 11.4666C208.656 12.8855 210.312 15.2809 214.26 11.9578Z" fill="black"/>
<path fill-rule="evenodd" clip-rule="evenodd" d="M164.6 118.905C162.537 118.424 160.916 120.172 161.321 122.184C161.751 124.314 164.041 125.045 165.961 124.977C168.138 124.903 170.314 124.454 172.502 124.362C174.748 124.27 177.004 124.253 179.254 124.313C181.333 124.37 183.469 124.736 185.532 124.407C186.335 124.279 186.259 123.217 185.737 122.84C184.184 121.72 182.173 121.263 180.342 120.793C178.477 120.314 176.568 119.948 174.655 119.724C172.715 119.497 170.759 119.382 168.806 119.361C167.917 119.35 166.828 119.548 165.961 119.389C165.519 119.307 165.07 119.015 164.6 118.905ZM170.555 91.2303C168.09 92.7291 164.334 96.2242 166.986 99.9402C170.107 103.217 174.601 99.4612 176.816 97.7616C178.869 96.4451 181.176 99.832 179.271 101.369C163.268 113.222 156.774 91.6228 169.308 89.4689C170.688 89.2309 171.201 90.7668 170.555 91.2303ZM188.43 80.0375C185.131 79.489 184.555 84.1908 187.823 84.5199C188.509 84.5894 189.19 84.6497 189.872 84.7084C189.805 84.9216 189.761 85.141 189.737 85.3666C189.707 85.5582 189.683 85.7606 189.662 85.9924C189.558 87.1497 190.379 88.3533 191.337 88.9142C192.333 89.4967 193.762 89.574 194.75 88.9142C195.26 88.5727 195.77 88.188 196.051 87.6256C196.428 87.0461 196.633 86.3756 196.655 85.688C198.157 86.0789 199.688 86.6073 201.207 86.887C201.151 86.9411 201.096 86.9998 201.043 87.0647C201.001 87.1141 201.057 87.2053 201.117 87.1605L201.879 86.9921C202.112 87.023 202.347 87.0477 202.58 87.0616L202.576 87.0415C202.965 87.0353 203.287 86.5733 202.936 86.2025C201.595 84.7841 199.503 83.8416 197.593 83.0536L195.756 82.2995C193.404 81.3446 190.923 80.4531 188.43 80.0375ZM161.902 81.493C159.742 81.2458 157.604 81.3431 155.44 81.476C151.8 81.6969 153.327 87.0091 156.25 85.7822C156.219 85.9769 156.211 86.1716 156.235 86.3524C156.349 87.2856 156.653 88.0752 157.509 88.5774C158.305 89.0424 159.312 89.0409 160.108 88.5774C160.961 88.0798 161.344 87.3799 161.562 86.4698C161.731 85.7637 161.663 85.1735 161.565 84.4735C161.533 84.2433 161.432 84.027 161.293 83.8323C161.497 83.7813 161.701 83.7319 161.905 83.6871C163.722 83.273 165.515 83.3564 167.325 83.0937C167.519 83.0659 167.549 82.7538 167.381 82.675C165.753 81.9086 163.684 81.6954 161.902 81.493ZM188.762 65.0889C187.516 64.613 185.95 65.4043 185.314 66.4928C184.592 67.7278 184.9 69.1535 185.791 70.1943C187.159 71.7909 189.762 72.7743 191.681 73.6853L191.834 73.759C193.806 74.7101 195.83 75.5832 197.88 76.3442C199.898 77.0929 201.998 77.6795 204.09 78.183C205.192 78.4485 206.318 78.6679 207.446 78.8063C208.336 78.9154 209.022 78.6711 209.873 78.6711C209.997 78.6716 210.037 78.5066 209.935 78.4432C209.139 77.9429 208.549 77.2842 207.681 76.8208C206.779 76.3386 205.872 75.8644 204.961 75.3949C203.121 74.4458 201.349 73.3898 199.574 72.3267C197.702 71.2063 195.875 70.0265 194.096 68.7634C192.355 67.5273 190.751 65.8482 188.762 65.0889ZM166.553 64.0725C164.995 63.7704 163.455 64.5072 162.994 66.094C162.553 67.6141 163.015 67.9401 161.836 69.0279C160.896 69.8947 159.884 70.6685 158.863 71.4304L157.358 72.5489C154.634 74.5664 151.888 76.4737 148.755 77.8349C148.49 77.9499 148.643 78.3433 148.895 78.3485C153.874 78.4446 158.648 77.7702 163.143 75.5401C165.243 74.4984 167.352 73.1807 168.569 71.1011C169.978 68.693 169.937 64.729 166.553 64.0725Z" fill="black"/>
</svg>
