<svg width="306" height="494" viewBox="0 0 306 494" fill="none" xmlns="http://www.w3.org/2000/svg">
<line x1="180" y1="493.5" x2="25" y2="493.5" stroke="black"/>
<line x1="199" y1="1.5" x2="25" y2="1.5" stroke="black"/>
<line x1="199" y1="108.5" y2="108.5" stroke="black"/>
<line x1="199" y1="197.5" y2="197.5" stroke="black"/>
<line x1="199" y1="257.5" y2="257.5" stroke="black"/>
<line x1="199" y1="321.5" y2="321.5" stroke="black"/>
<line x1="199" y1="390.5" y2="390.5" stroke="black"/>
<path d="M286.772 172.443L286.592 172.379L286.585 172.399L286.582 172.42L286.772 172.443ZM286.772 172.443C286.581 172.42 286.581 172.42 286.581 172.42V172.424V172.437L286.574 172.489C286.569 172.535 286.559 172.603 286.547 172.693C286.522 172.874 286.484 173.14 286.432 173.482C286.328 174.167 286.165 175.157 285.936 176.376C285.331 179.564 284.564 182.719 283.637 185.828C281.436 193.159 277.796 201.686 272.041 206.588C270.632 207.788 268.296 208.592 265.251 209.064C261.64 209.546 257.994 209.71 254.354 209.555C246.068 209.326 236.102 208.093 226.491 206.552C216.881 205.01 207.634 203.16 200.788 201.695C197.365 200.962 194.543 200.326 192.577 199.873C191.594 199.647 190.825 199.466 190.302 199.342L189.705 199.2L189.641 199.184L185.619 100.124L283.554 102.515V118.657C283.554 120.163 284.407 121.797 285.649 123.446C287.057 125.221 288.587 126.896 290.229 128.457C290.571 128.795 290.913 129.131 291.253 129.464C292.574 130.759 293.847 132.009 294.877 133.168C295.462 133.807 295.994 134.493 296.468 135.218C296.823 135.73 297.062 136.314 297.17 136.927C297.187 137.839 297.084 138.75 296.864 139.635C296.61 140.895 296.22 142.466 295.736 144.231C294.768 147.761 293.429 152.064 292.075 156.235C290.72 160.406 289.349 164.442 288.317 167.435C287.801 168.932 287.37 170.168 287.068 171.029C286.915 171.46 286.798 171.798 286.717 172.027C286.676 172.142 286.645 172.23 286.624 172.289L286.6 172.356L286.595 172.373V172.377C286.595 172.377 286.592 172.379 286.772 172.443Z" fill="#EEC399" stroke="#8B8B8B"/>
<path d="M160.708 245.06L257.033 240.525L266.614 269.249C266.614 269.249 299.395 300.996 302.421 308.051C305.447 315.106 305.951 332.744 305.447 338.791C304.943 344.838 298.387 376.587 298.387 376.587L284.77 423.451L279.223 450.16V470.316L284.77 494H158.186L183.402 450.16V430.003L176.846 395.231L160.708 315.106V245.06Z" fill="#828282"/>
<path d="M139.527 22.8267C147.596 6.70096 165.065 5.41576 183.907 2.16572C208.348 -2.05262 223.806 3.12026 246.442 13.2522C259.854 19.2559 267.461 23.3971 278.214 33.4092C290.207 44.5762 301.515 51.3214 302.421 67.6767C303.292 83.4076 289.309 99.9281 283.761 103.456C278.214 106.983 246.442 104.967 246.442 138.731V209.281C246.442 209.281 266.896 259.149 271.658 292.933C274.545 313.418 275.441 325.197 274.18 345.846C272.384 375.205 268.815 392.046 258.042 419.419C254.397 428.682 253.896 435.013 247.451 442.599C230.341 462.74 205.479 453.203 179.872 446.632C171.122 444.386 165.734 443.535 158.187 438.567C152.831 435.047 150.449 432.176 146.083 427.483C134.123 414.627 130.073 404.91 123.389 388.679C115.024 368.366 116.18 355.163 111.285 333.752C107.636 317.789 105.248 313.258 103.299 297.001C101.216 279.61 103.299 265.599 103.299 248.083C103.299 224.468 100.657 211.204 101.703 187.612C102.639 166.501 103.607 154.658 106.242 133.691C109.256 109.713 109.523 95.7541 116.832 72.7148C123.305 52.3153 131.457 38.9524 139.527 22.8267Z" fill="#4F3325"/>
<path d="M262.076 99.928H261.067V117.062H262.076V99.928Z" fill="#EEC399"/>
<path d="M256.502 100.6L257.032 99.9285V122.773L246.945 137.219C246.945 137.219 245.431 127.139 249.075 113.366C250.104 109.472 251.196 108.663 253.848 104.631L256.502 100.6Z" fill="#EEC399"/>
<path d="M254.007 350.982C254.007 417.605 251.424 460.743 220.182 460.743C188.939 460.743 172.955 452.515 160.708 383.135C146.998 305.476 161.863 233.973 196.856 233.973C234.178 233.973 254.007 284.358 254.007 350.982Z" fill="#828282"/>
<path d="M173.82 303.012L223.747 300.492L225.765 398.759V445.623L236.356 494H195.002L191.471 443.607L183.905 398.759L173.82 303.012Z" fill="#EEC399"/>
</svg>
