<svg width="31" height="36" viewBox="0 0 31 36" fill="none" xmlns="http://www.w3.org/2000/svg">
<path d="M17.0973 10.413C17.1129 10.3307 17.1154 10.2863 17.1154 10.2863L17.0973 10.413Z" fill="#8EACCB"/>
<path opacity="0.55" d="M23.5434 36L20.6546 35.519C21.5328 35.7476 22.4941 35.9194 23.5434 36Z" fill="#8EACCB"/>
<path d="M20.972 0C20.972 0 29.2494 7.54965 23.0221 15.2292C24.4356 18.6648 23.0903 22.8323 20.6505 26.9998C16.793 33.589 23.5434 36 23.5434 36C23.5434 36 18.0791 31.821 26.7578 22.3389C35.4365 12.8568 27.5612 1.44645 20.972 0Z" fill="url(#paint0_linear)"/>
<path d="M8.11519 14.1429C13.8714 12.9185 16.2659 11.2278 17.08 10.4927C17.0866 10.4631 17.0924 10.436 17.0973 10.4129L17.1154 10.2863C17.1154 10.2863 17.1129 10.3307 17.0973 10.4129L17.0866 10.4869C17.3358 10.2608 17.4369 10.1251 17.4369 10.1251C20.449 11.4836 22.2014 13.2326 23.0229 15.2292C29.2502 7.54964 20.9729 0 20.9729 0C20.9729 0 22.0978 4.17899 11.6511 6.58919C5.09483 8.10224 -0.447552 13.6668 0.0285666 19.6672C0.802362 17.6929 2.86966 15.2588 8.11519 14.1429Z" fill="url(#paint1_linear)"/>
<path d="M20.6505 27.0006C23.0903 22.8331 24.4356 18.6657 23.022 15.23C22.0953 16.3731 20.8495 17.5194 19.204 18.6435C17.8226 19.5883 10.6175 26.1931 9.56079 27.0006L14.0605 31.8218C14.0605 31.8218 16.2906 34.3825 20.6538 35.5189L23.5426 36C23.5434 36 16.7938 33.5898 20.6505 27.0006Z" fill="url(#paint2_linear)"/>
<path d="M17.4369 10.1251C17.4369 10.1251 17.3366 10.2608 17.0866 10.4869L15.5579 21.2691C16.6146 20.4616 17.8226 19.5875 19.2049 18.6426C20.8503 17.5177 22.0953 16.3722 23.0229 15.2292C22.2006 13.2335 20.449 11.4836 17.4369 10.1251Z" fill="#1E1E1E"/>
<path d="M8.27556 30.0539C8.27556 30.0539 5.86455 23.625 13.5795 21.0537C13.5795 21.0537 8.27557 18.4823 5.06197 22.1786C5.06197 22.1786 3.77587 18.8038 10.3659 16.0713C15.9395 13.7606 16.9131 11.2205 17.0809 10.4919C16.266 11.2279 13.8714 12.9177 8.11604 14.1421C2.87051 15.258 0.803215 17.692 0.0294189 19.6672C0.31065 23.2279 2.71016 26.9422 8.27556 30.0539Z" fill="url(#paint3_linear)"/>
<path d="M12.8049 26.6832L12.7646 26.7506C13.0836 26.3304 13.5425 26.2211 14.1214 26.3543C15.1032 26.6149 18.552 27.9635 18.1737 25.874C18.0578 25.2935 17.8251 25.0188 18.3349 24.5361C18.6745 24.2138 19.1112 24.1513 18.7822 23.6168C18.6186 23.3495 18.6622 23.2023 18.987 23.0173C19.3587 22.7813 19.2773 22.6481 19.0487 22.2073C18.4599 21.1466 19.4072 20.9599 19.8915 20.5849C20.3463 20.2206 20.1974 19.8169 19.8825 19.4082C19.6999 19.1804 19.547 18.9428 19.3644 18.715C18.7633 17.8877 18.5109 17.2924 18.3925 16.6156L19.3587 16.1263L18.3374 16.1107C18.413 13.9209 18.8308 12.6825 17.4509 10.1819L17.3555 10.1054C17.3555 10.1054 15.817 12.9506 9.1283 15.952C2.43961 18.9535 4.54391 23.5239 4.54391 23.5239C4.54391 23.5239 5.33662 18.6311 13.008 20.5463L12.957 20.6672C11.7071 21.2008 5.17298 24.2212 8.14152 29.979C8.16866 30.0308 8.74017 30.502 9.43173 30.9444C11.0714 31.9945 12.8155 32.8736 14.6353 33.5676L17.483 34.653L20.4425 35.523C17.5521 34.6407 10.111 30.456 12.8049 26.6832Z" fill="white"/>
<defs>
<linearGradient id="paint0_linear" x1="25.0249" y1="0.000197355" x2="25.0249" y2="36.0003" gradientUnits="userSpaceOnUse">
<stop offset="0.6842" stop-color="#878786"/>
<stop offset="0.8732" stop-color="#343433"/>
<stop offset="1"/>
</linearGradient>
<linearGradient id="paint1_linear" x1="0.301303" y1="20.1409" x2="25.0532" y2="5.85038" gradientUnits="userSpaceOnUse">
<stop offset="0.6842" stop-color="#878786"/>
<stop offset="0.8732" stop-color="#343433"/>
<stop offset="1"/>
</linearGradient>
<linearGradient id="paint2_linear" x1="16.5794" y1="15.2293" x2="16.5794" y2="36.0003" gradientUnits="userSpaceOnUse">
<stop stop-color="#878786"/>
<stop offset="0.5984" stop-color="#343433"/>
<stop offset="1"/>
</linearGradient>
<linearGradient id="paint3_linear" x1="2.94118" y1="26.9771" x2="13.6139" y2="8.49144" gradientUnits="userSpaceOnUse">
<stop stop-color="#373735"/>
<stop offset="0.0264" stop-color="#4A4A48"/>
<stop offset="0.0815" stop-color="#6C6C6B"/>
<stop offset="0.1337" stop-color="#858584"/>
<stop offset="0.1812" stop-color="#949493"/>
<stop offset="0.2199" stop-color="#999998"/>
<stop offset="0.3025" stop-color="#7F7F7E"/>
<stop offset="0.4638" stop-color="#525251"/>
<stop offset="0.6189" stop-color="#2E2E2E"/>
<stop offset="0.764" stop-color="#151515"/>
<stop offset="0.8951" stop-color="#050505"/>
<stop offset="1"/>
</linearGradient>
</defs>
</svg>
