<svg width="125" height="36" viewBox="0 0 125 36" fill="none" xmlns="http://www.w3.org/2000/svg">
<path d="M42.9009 19.6693H42.6976C42.6481 19.5274 42.5699 19.3679 42.4623 19.1892C42.3546 19.0106 42.2127 18.8431 42.0372 18.686C41.8617 18.5289 41.6496 18.3981 41.4 18.2936C41.1503 18.1891 40.8561 18.1365 40.5179 18.1365C40.2164 18.1365 39.9485 18.1827 39.714 18.2752C39.4795 18.3678 39.2841 18.497 39.1278 18.6628C38.9707 18.8287 38.8519 19.0265 38.7721 19.2538C38.6924 19.4819 38.6517 19.7339 38.6517 20.0115C38.6517 20.4549 38.7761 20.8784 39.0257 21.2819C39.2753 21.6855 39.588 22.0842 39.9636 22.4782C40.3393 22.8722 40.7452 23.2662 41.183 23.6602C41.6201 24.0541 42.0268 24.4641 42.4025 24.8884C42.7781 25.3134 43.0907 25.7585 43.3404 26.2234C43.59 26.6884 43.7144 27.1884 43.7144 27.7244C43.7144 28.1247 43.645 28.5267 43.5062 28.9294C43.3675 29.333 43.1537 29.6943 42.8642 30.0149C42.5747 30.3355 42.2023 30.5955 41.7469 30.7957C41.2915 30.9958 40.7492 31.0955 40.1215 31.0955C39.7706 31.0955 39.4365 31.0628 39.119 30.9982C38.8016 30.9336 38.5097 30.8531 38.2418 30.7582C37.9738 30.6625 37.7337 30.5596 37.5216 30.4487C37.3094 30.3379 37.1348 30.2366 37 30.1441L37.2121 28.1024H37.4434C37.5112 28.3919 37.6221 28.6671 37.776 28.9294C37.9299 29.191 38.1189 29.4223 38.3438 29.6225C38.5687 29.8227 38.8255 29.983 39.115 30.1026C39.4045 30.223 39.7212 30.2829 40.0665 30.2829C40.3807 30.2829 40.6623 30.235 40.9119 30.1393C41.1615 30.0436 41.3752 29.9112 41.5539 29.7421C41.7325 29.5731 41.8697 29.3713 41.9646 29.1368C42.0603 28.9031 42.1082 28.6471 42.1082 28.3704C42.1082 27.9828 42.0372 27.6239 41.896 27.2945C41.7541 26.9651 41.5683 26.6525 41.337 26.3566C41.1057 26.0607 40.8441 25.7744 40.5522 25.4977C40.2595 25.2209 39.9596 24.9418 39.6518 24.6619C39.3439 24.3819 39.0433 24.094 38.7514 23.7981C38.4587 23.5023 38.1971 23.1872 37.9666 22.8515C37.7353 22.5157 37.5495 22.156 37.4075 21.7708C37.2656 21.3864 37.1954 20.9629 37.1954 20.5011C37.1954 20.0147 37.2895 19.576 37.4769 19.1852C37.6643 18.7944 37.914 18.4603 38.225 18.1827C38.536 17.906 38.8886 17.693 39.2825 17.5455C39.6765 17.398 40.0832 17.3238 40.502 17.3238C40.8098 17.3238 41.0929 17.3485 41.3521 17.398C41.6105 17.4474 41.8434 17.5056 42.0492 17.5734C42.2557 17.6412 42.4352 17.709 42.5899 17.7768C42.7438 17.8446 42.8698 17.9004 42.9687 17.9427L42.9009 19.6693Z" fill="#1E1E1E"/>
<path d="M49.4311 30.2637C49.6161 30.2637 49.7988 30.2302 49.9806 30.1624C50.1624 30.0946 50.3379 30.0021 50.507 29.8857C50.6761 29.7685 50.8396 29.6345 50.9967 29.4837C51.1538 29.333 51.2997 29.1743 51.4353 29.0084L51.5278 29.0547L50.9273 30.5421C50.8531 30.5787 50.7622 30.6234 50.6545 30.676C50.5469 30.7287 50.4177 30.7773 50.2669 30.8236C50.1162 30.8698 49.9391 30.9097 49.7358 30.944C49.5324 30.9775 49.2923 30.9951 49.0156 30.9951C48.1902 30.9951 47.5481 30.7717 47.0896 30.3251C46.631 29.8785 46.4013 29.1815 46.4013 28.2332V22.0723L44.8493 22.1281V21.3154C45.0399 21.3282 45.268 21.337 45.5328 21.3433C45.7976 21.3497 46.0871 21.3529 46.4013 21.3529C46.3949 20.9159 46.3845 20.5291 46.3686 20.1941C46.3534 19.8583 46.3343 19.5657 46.3128 19.3168C46.2912 19.0672 46.2649 18.8566 46.2346 18.6844C46.2035 18.5121 46.1732 18.367 46.1421 18.2505V18.2138H48.2755V18.2505C48.2388 18.3678 48.2045 18.5121 48.1742 18.6844C48.1431 18.8566 48.1176 19.0664 48.096 19.3128C48.0745 19.5593 48.0562 19.8504 48.041 20.1853C48.0259 20.5211 48.0147 20.9103 48.0083 21.3537C48.3959 21.3473 48.7763 21.3402 49.1488 21.3306C49.5212 21.321 49.8602 21.309 50.1648 21.2939C50.4695 21.2787 50.7279 21.2628 50.9408 21.2476C51.153 21.2325 51.2933 21.2181 51.3611 21.2062L51.1952 22.1481C50.881 22.1417 50.5516 22.1329 50.2071 22.1201C49.9112 22.1082 49.5731 22.0986 49.1911 22.0922C48.809 22.0858 48.4151 22.0803 48.0091 22.0739V28.4286C48.0091 28.8106 48.0506 29.1201 48.1335 29.3569C48.2165 29.5938 48.3241 29.7804 48.4565 29.916C48.5889 30.0516 48.7397 30.1441 48.9095 30.1927C49.0786 30.239 49.2525 30.2637 49.4311 30.2637Z" fill="#1E1E1E"/>
<path d="M56.3122 30.6976L53.0607 23.5852C52.9434 23.314 52.8174 23.0541 52.6818 22.8044C52.5463 22.5548 52.4187 22.3323 52.2982 22.1345C52.1778 21.9375 52.0717 21.7732 51.9792 21.64C51.8867 21.5076 51.8253 21.4231 51.7942 21.3864V21.3497H54.2139V21.3864C54.2011 21.4175 54.1924 21.4638 54.186 21.5252C54.1796 21.5866 54.1764 21.6424 54.1764 21.6911C54.1764 21.8817 54.2059 22.093 54.2641 22.3235C54.3224 22.5548 54.4316 22.8427 54.5919 23.1872L57.1416 28.7293L59.4696 23.2614C59.5677 23.0333 59.6682 22.7845 59.7695 22.5133C59.8708 22.2422 59.9218 21.9686 59.9218 21.6911C59.9218 21.6113 59.9154 21.5451 59.9035 21.4925C59.8907 21.4407 59.8788 21.4048 59.8668 21.3864V21.3497H61.5296V21.3864C61.4188 21.5037 61.2784 21.711 61.1093 22.0101C60.9403 22.3092 60.76 22.6832 60.5686 23.1322L56.1631 33.6253C56.0642 33.8534 55.9645 34.1022 55.8632 34.3734C55.7619 34.6446 55.7109 34.9181 55.7109 35.1956C55.7109 35.2754 55.7172 35.3416 55.7292 35.3942C55.7412 35.4469 55.7539 35.482 55.7659 35.5003V35.537H54.0384V35.5003C54.1557 35.3831 54.2984 35.1781 54.4683 34.8862C54.6374 34.5935 54.8176 34.2259 55.009 33.7824L56.3122 30.6976Z" fill="#1E1E1E"/>
<path d="M62.8798 20.6112C62.8798 20.088 62.8719 19.6311 62.8567 19.2395C62.8416 18.8487 62.8232 18.5113 62.8017 18.2282C62.7802 17.9451 62.7522 17.7082 62.7187 17.5168C62.6844 17.3262 62.6494 17.1659 62.6127 17.0367V17H64.7461V17.0367C64.7094 17.1659 64.6751 17.3262 64.6448 17.5168C64.6137 17.7074 64.5866 17.9451 64.5618 18.2282C64.5371 18.5113 64.5188 18.8487 64.5068 19.2395C64.494 19.6303 64.4885 20.088 64.4885 20.6112V27.1972C64.4885 27.7204 64.4948 28.1782 64.5068 28.569C64.5188 28.9598 64.5379 29.2971 64.5618 29.5802C64.5866 29.8634 64.6145 30.101 64.6448 30.2916C64.6759 30.4822 64.7094 30.6425 64.7461 30.7717V30.8084H62.6127V30.7717C62.6494 30.6425 62.6852 30.4822 62.7187 30.2916C62.7522 30.101 62.7802 29.8634 62.8017 29.5802C62.8232 29.2971 62.8416 28.9598 62.8567 28.569C62.8719 28.1782 62.8798 27.7204 62.8798 27.1972V20.6112Z" fill="#1E1E1E"/>
<path d="M67.4425 24.9617C67.4425 24.4386 67.4346 23.9816 67.4194 23.59C67.4042 23.1992 67.3859 22.8618 67.3644 22.5787C67.3428 22.2956 67.3149 22.0587 67.2814 21.8673C67.2471 21.6767 67.212 21.5164 67.1754 21.3872V21.3505H69.3087V21.3872C69.2721 21.5164 69.2378 21.6767 69.2075 21.8673C69.1764 22.0579 69.1492 22.2956 69.1245 22.5787C69.0998 22.8618 69.0815 23.1992 69.0695 23.59C69.0567 23.9808 69.0511 24.4386 69.0511 24.9617V27.1972C69.0511 27.7204 69.0575 28.1782 69.0695 28.569C69.0815 28.9598 69.1006 29.2971 69.1245 29.5802C69.1492 29.8634 69.1772 30.101 69.2075 30.2916C69.2386 30.4822 69.2721 30.6425 69.3087 30.7717V30.8084H67.1754V30.7717C67.212 30.6425 67.2479 30.4822 67.2814 30.2916C67.3149 30.101 67.3428 29.8634 67.3644 29.5802C67.3859 29.2971 67.4042 28.9598 67.4194 28.569C67.4346 28.1782 67.4425 27.7204 67.4425 27.1972V24.9617ZM67.2487 18.5512C67.2487 18.4156 67.275 18.288 67.3269 18.1676C67.3787 18.0472 67.4481 17.9427 67.535 17.8534C67.6212 17.764 67.7241 17.693 67.8445 17.6412C67.9649 17.5886 68.0957 17.563 68.2369 17.563C68.3788 17.563 68.5096 17.5894 68.6293 17.6412C68.7497 17.6938 68.8542 17.7648 68.9435 17.8534C69.0328 17.9427 69.1038 18.0472 69.1556 18.1676C69.2075 18.288 69.2338 18.4156 69.2338 18.5512C69.2338 18.8343 69.1381 19.072 68.9475 19.2626C68.7569 19.4532 68.5192 19.5489 68.2361 19.5489C68.0941 19.5489 67.9633 19.5226 67.8437 19.4707C67.7233 19.4181 67.6204 19.3479 67.5342 19.2586C67.4481 19.1693 67.3787 19.0648 67.3261 18.9444C67.275 18.8239 67.2487 18.6932 67.2487 18.5512Z" fill="#1E1E1E"/>
<path d="M76.1252 23.2064L75.996 23.2247C75.953 23.0836 75.8836 22.932 75.7879 22.7725C75.6922 22.6122 75.5694 22.4647 75.4186 22.3291C75.2679 22.1935 75.0861 22.0811 74.8739 21.9917C74.6618 21.9024 74.4169 21.8578 74.1394 21.8578C73.9488 21.8578 73.7685 21.8857 73.5987 21.9407C73.4296 21.9965 73.2813 22.0779 73.1552 22.1855C73.0292 22.2932 72.9287 22.4272 72.8554 22.5875C72.7812 22.7478 72.7445 22.9352 72.7445 23.1505C72.7445 23.452 72.8386 23.7399 73.026 24.0143C73.2135 24.2886 73.4495 24.559 73.7327 24.827C74.0158 25.0949 74.322 25.3645 74.6514 25.6349C74.9808 25.906 75.287 26.1891 75.5702 26.4842C75.8533 26.7801 76.0886 27.0951 76.2768 27.4309C76.4642 27.7666 76.5583 28.1279 76.5583 28.5163C76.5583 28.8306 76.5025 29.1368 76.3924 29.4351C76.2816 29.7342 76.1109 29.9997 75.8796 30.2342C75.6483 30.4687 75.3532 30.6577 74.9927 30.802C74.6323 30.9464 74.2032 31.019 73.7039 31.019C73.4081 31.019 73.1329 30.9911 72.8769 30.936C72.6217 30.881 72.3872 30.8116 72.1751 30.7279C71.9629 30.6449 71.7715 30.5524 71.6024 30.4511C71.4334 30.3498 71.2834 30.2526 71.1542 30.16L71.2468 28.4055H71.3943C71.4557 28.695 71.5482 28.9598 71.671 29.1998C71.7939 29.4399 71.947 29.6448 72.128 29.8139C72.3099 29.983 72.5172 30.1154 72.7517 30.2111C72.9854 30.3068 73.2414 30.3538 73.5181 30.3538C73.9735 30.3538 74.3356 30.2278 74.6036 29.975C74.8715 29.723 75.0055 29.3928 75.0055 28.9869C75.0055 28.6607 74.9146 28.36 74.7328 28.0865C74.5509 27.8129 74.322 27.5489 74.0445 27.2969C73.7677 27.0441 73.4703 26.7921 73.1529 26.5393C72.8354 26.2864 72.5387 26.0177 72.2612 25.7314C71.9845 25.445 71.7548 25.1308 71.5729 24.7895C71.3911 24.4473 71.3002 24.0581 71.3002 23.6211C71.3002 23.2638 71.3664 22.936 71.4988 22.6377C71.6312 22.3395 71.8162 22.0835 72.0531 21.8713C72.2899 21.6592 72.5714 21.4941 72.8984 21.3768C73.2246 21.2596 73.5819 21.2014 73.9695 21.2014C74.4807 21.2014 74.9074 21.2556 75.2488 21.3633C75.5909 21.471 75.8509 21.5746 76.0295 21.6727L76.1252 23.2064Z" fill="#1E1E1E"/>
<path d="M81.9903 30.2637C82.1753 30.2637 82.3579 30.2302 82.5398 30.1624C82.7216 30.0946 82.897 30.0021 83.0661 29.8857C83.2352 29.7685 83.3987 29.6345 83.5558 29.4837C83.7129 29.333 83.8589 29.1743 83.9944 29.0084L84.087 29.0547L83.4864 30.5421C83.4122 30.5787 83.3213 30.6234 83.2137 30.676C83.106 30.7287 82.9768 30.7773 82.8261 30.8236C82.6753 30.8698 82.4983 30.9097 82.2949 30.944C82.0915 30.9775 81.8515 30.9951 81.5747 30.9951C80.7493 30.9951 80.1073 30.7717 79.6487 30.3251C79.1901 29.8785 78.9604 29.1815 78.9604 28.2332V22.0723L77.4084 22.1281V21.3154C77.5991 21.3282 77.8271 21.337 78.0919 21.3433C78.3567 21.3497 78.6462 21.3529 78.9604 21.3529C78.9541 20.9159 78.9437 20.5291 78.9277 20.1941C78.9126 19.8583 78.8942 19.5657 78.8727 19.3168C78.8512 19.0672 78.8249 18.8566 78.7946 18.6844C78.7635 18.5121 78.7331 18.367 78.702 18.2505V18.2138H80.8354V18.2505C80.7987 18.3678 80.7644 18.5121 80.7341 18.6844C80.703 18.8566 80.6775 19.0664 80.656 19.3128C80.6345 19.5593 80.6161 19.8504 80.6002 20.1853C80.585 20.5211 80.5738 20.9103 80.5675 21.3537C80.9559 21.3473 81.3355 21.3402 81.7079 21.3306C82.0804 21.321 82.4193 21.309 82.724 21.2939C83.0286 21.2787 83.287 21.2628 83.5 21.2476C83.7121 21.2325 83.8525 21.2181 83.9203 21.2062L83.7544 22.1481C83.4402 22.1417 83.1108 22.1329 82.7663 22.1201C82.4704 22.1082 82.1322 22.0986 81.7502 22.0922C81.3682 22.0858 80.9742 22.0803 80.5683 22.0739V28.4286C80.5683 28.8106 80.6097 29.1201 80.6927 29.3569C80.7756 29.5938 80.8833 29.7804 81.0157 29.916C81.1481 30.0516 81.2988 30.1441 81.4687 30.1927C81.6378 30.239 81.8116 30.2637 81.9903 30.2637Z" fill="#1E1E1E"/>
<path d="M85.8048 17.5631C85.9276 17.5758 86.0576 17.5878 86.1932 17.5998C86.3096 17.6125 86.4412 17.6197 86.5856 17.6229C86.7299 17.6261 86.8799 17.6277 87.0338 17.6277C87.2739 17.6277 87.5985 17.5982 88.0084 17.5399C88.4175 17.4817 88.9399 17.4522 89.5739 17.4522C90.1649 17.4522 90.7112 17.5383 91.2137 17.7106C91.7153 17.8829 92.1515 18.1357 92.5208 18.4683C92.8901 18.8008 93.178 19.206 93.3845 19.6829C93.5911 20.1598 93.694 20.7037 93.694 21.3131C93.694 22.1321 93.5305 22.8403 93.2043 23.4377C92.8781 24.035 92.4411 24.5183 91.8924 24.8876C91.3444 25.2568 90.7128 25.5081 89.999 25.6404C89.2844 25.7728 88.5363 25.7808 87.7548 25.6636V27.1972C87.7548 27.7204 87.7627 28.1782 87.7779 28.569C87.7931 28.9598 87.8114 29.2971 87.8337 29.5802C87.8553 29.8634 87.8832 30.101 87.9167 30.2916C87.9502 30.4823 87.986 30.6426 88.0227 30.7718V30.8084H85.8056V30.7718C85.8423 30.6426 85.8782 30.4823 85.9117 30.2916C85.9452 30.101 85.9747 29.8634 85.9994 29.5802C86.0241 29.2971 86.0425 28.9598 86.0544 28.569C86.0664 28.1782 86.0728 27.7204 86.0728 27.1972V21.1839C86.0728 20.6607 86.0664 20.2037 86.0544 19.8121C86.0417 19.4213 86.0233 19.0824 85.9994 18.7961C85.9747 18.5097 85.9452 18.2713 85.9117 18.0799C85.8782 17.8893 85.8423 17.729 85.8056 17.5998V17.5631H85.8048ZM87.754 24.9434C88.3577 25.0543 88.9096 25.0654 89.412 24.9761C89.9137 24.8868 90.3451 24.6962 90.7048 24.4035C91.0653 24.1108 91.3452 23.7152 91.5454 23.2168C91.7456 22.7183 91.8453 22.1082 91.8453 21.388C91.8453 20.8896 91.7927 20.435 91.6882 20.0258C91.5837 19.6167 91.4282 19.2682 91.2216 18.9819C91.0151 18.6956 90.7551 18.4738 90.4409 18.3167C90.1266 18.1596 89.7606 18.0815 89.3419 18.0815C89.0771 18.0815 88.8458 18.0926 88.6488 18.1142C88.4518 18.1357 88.2851 18.1588 88.1503 18.1835C87.99 18.2146 87.8576 18.2481 87.7532 18.2848V24.9434H87.754Z" fill="#4F4F4E"/>
<path d="M94.8568 28.0841C94.8568 27.5976 94.9565 27.1757 95.1567 26.8184C95.3569 26.4611 95.6232 26.1564 95.9558 25.9036C96.2884 25.6508 96.6672 25.4466 97.0923 25.2895C97.5174 25.1324 97.9576 25.0096 98.413 24.9203C98.8684 24.8309 99.3182 24.7695 99.7616 24.7352C100.205 24.7017 100.611 24.6818 100.981 24.6754V24.2041C100.981 23.7973 100.928 23.4464 100.824 23.1513C100.719 22.8555 100.571 22.6106 100.381 22.4168C100.19 22.223 99.9602 22.0779 99.6922 21.983C99.4243 21.8873 99.13 21.8394 98.8102 21.8394C98.5884 21.8394 98.3699 21.8578 98.1546 21.8952C97.9393 21.9319 97.716 21.9941 97.4847 22.0803C97.2534 22.1664 97.0101 22.2836 96.7549 22.4312C96.4997 22.5787 96.2238 22.7669 95.9287 22.9942L95.8362 22.9392L96.4638 21.6368C96.6672 21.5443 96.8674 21.4694 97.0644 21.4103C97.2614 21.3521 97.4615 21.3043 97.6649 21.2668C97.8683 21.2301 98.0756 21.2038 98.2886 21.1886C98.5007 21.1735 98.724 21.1655 98.9585 21.1655C99.6053 21.1655 100.158 21.2437 100.617 21.4008C101.075 21.5579 101.451 21.7732 101.743 22.0476C102.036 22.3219 102.25 22.6417 102.385 23.0086C102.521 23.3747 102.589 23.7678 102.589 24.1865V27.198C102.589 27.7212 102.597 28.179 102.612 28.5698C102.627 28.9606 102.645 29.2979 102.667 29.581C102.689 29.8642 102.716 30.1018 102.75 30.2924C102.783 30.483 102.819 30.6433 102.856 30.7725V30.8092H100.814V30.7725C100.845 30.6744 100.869 30.5636 100.884 30.44C100.899 30.3172 100.912 30.1688 100.925 29.9965C100.796 30.1074 100.644 30.2214 100.468 30.3387C100.293 30.4559 100.093 30.562 99.8677 30.6577C99.6428 30.7534 99.3932 30.83 99.1196 30.889C98.8453 30.9472 98.5454 30.9767 98.2192 30.9767C97.1481 30.9767 96.3195 30.7255 95.7349 30.2238C95.1495 29.7206 94.8568 29.0076 94.8568 28.0841ZM100.981 25.3956C100.42 25.402 99.882 25.4339 99.3645 25.4929C98.8469 25.5511 98.3899 25.6731 97.9927 25.8574C97.5955 26.0424 97.2781 26.3056 97.0412 26.6469C96.8044 26.9891 96.6855 27.4429 96.6855 28.0091C96.6855 28.7356 96.8674 29.2899 97.2303 29.672C97.5931 30.054 98.0956 30.2446 98.736 30.2446C99.0319 30.2446 99.3006 30.2031 99.5439 30.1202C99.7871 30.0372 100.002 29.9327 100.191 29.8059C100.378 29.6799 100.537 29.5412 100.666 29.3904C100.795 29.2397 100.894 29.0937 100.962 28.9518C100.974 28.7181 100.98 28.4573 100.98 28.171C100.98 27.8847 100.98 27.5601 100.98 27.1964V25.3956H100.981Z" fill="#4F4F4E"/>
<path d="M108.952 35.0298C109.451 35.0298 109.873 34.9755 110.218 34.8679C110.563 34.7602 110.847 34.6111 111.072 34.4197C111.297 34.229 111.469 33.9994 111.59 33.7314C111.709 33.4634 111.799 33.1691 111.858 32.8493C111.916 32.5287 111.95 32.1874 111.959 31.8237C111.969 31.46 111.973 31.0844 111.973 30.6968V30.3929C111.671 30.5532 111.307 30.6904 110.882 30.8037C110.457 30.9177 109.977 30.9743 109.441 30.9743C108.708 30.9743 108.043 30.8603 107.446 30.6322C106.848 30.4041 106.339 30.0779 105.917 29.6528C105.495 29.2277 105.17 28.7125 104.942 28.1056C104.714 27.4995 104.6 26.8168 104.6 26.0599C104.6 25.3645 104.713 24.7177 104.938 24.1203C105.162 23.523 105.479 23.0062 105.889 22.5684C106.298 22.1313 106.788 21.7876 107.357 21.5387C107.927 21.2891 108.557 21.1647 109.246 21.1647C109.542 21.1647 109.812 21.1894 110.059 21.2389C110.305 21.2883 110.535 21.3545 110.747 21.4375C110.959 21.5204 111.159 21.6161 111.347 21.7238C111.535 21.8314 111.718 21.9471 111.897 22.0699L111.804 21.3864V21.3497H113.845V21.3864C113.809 21.5156 113.773 21.6759 113.739 21.8665C113.705 22.0571 113.678 22.2948 113.656 22.5779C113.635 22.8611 113.616 23.1984 113.6 23.5892C113.585 23.98 113.577 24.4378 113.577 24.9609V31.2423C113.577 31.8085 113.501 32.3612 113.351 32.9004C113.2 33.4395 112.944 33.918 112.584 34.3367C112.224 34.7554 111.748 35.0912 111.158 35.3432C110.567 35.596 109.83 35.722 108.95 35.722C108.642 35.722 108.331 35.6925 108.017 35.6343C107.703 35.5761 107.404 35.5051 107.121 35.4221C106.838 35.3392 106.582 35.2483 106.355 35.1494C106.127 35.0505 105.945 34.9644 105.81 34.891L105.524 33.1173L105.671 33.0806C105.819 33.4004 106.021 33.6827 106.277 33.926C106.532 34.1692 106.811 34.3726 107.112 34.5353C107.414 34.6988 107.727 34.8216 108.05 34.9045C108.375 34.9883 108.675 35.0298 108.952 35.0298ZM109.858 30.3004C110.301 30.3004 110.703 30.2262 111.063 30.0787C111.423 29.9312 111.726 29.7589 111.973 29.5611V24.9617C111.973 24.6172 111.969 24.3046 111.963 24.0239C111.957 23.7439 111.953 23.4895 111.953 23.2622C111.806 23.0341 111.635 22.8323 111.441 22.6569C111.247 22.4814 111.04 22.3339 110.822 22.2135C110.603 22.093 110.38 22.0013 110.152 21.9367C109.924 21.8721 109.7 21.8394 109.478 21.8394C109.01 21.8394 108.588 21.9255 108.212 22.0978C107.837 22.2701 107.518 22.5181 107.256 22.8411C106.994 23.1641 106.794 23.5589 106.655 24.0231C106.517 24.488 106.447 25.016 106.447 25.6069C106.447 26.2721 106.521 26.891 106.669 27.4636C106.817 28.0362 107.033 28.5339 107.32 28.955C107.606 29.3769 107.962 29.7062 108.387 29.9431C108.814 30.1824 109.303 30.3004 109.858 30.3004Z" fill="#4F4F4E"/>
<path d="M120.563 30.9751C119.879 30.9751 119.239 30.8674 118.642 30.6521C118.044 30.4368 117.524 30.121 117.081 29.7054C116.637 29.2899 116.288 28.7755 116.032 28.163C115.777 27.5505 115.648 26.8503 115.648 26.0615C115.648 25.3661 115.766 24.7209 115.999 24.1267C116.233 23.5326 116.557 23.0166 116.969 22.5795C117.381 22.1425 117.863 21.8003 118.414 21.5539C118.965 21.3075 119.561 21.1846 120.201 21.1846C120.836 21.1846 121.424 21.2939 121.966 21.5124C122.507 21.7309 122.977 22.0484 123.374 22.4639C123.771 22.8794 124.085 23.3938 124.316 24.0063C124.546 24.6188 124.672 25.3166 124.69 26.0982C123.994 26.0863 123.298 26.0767 122.603 26.0703C121.907 26.0639 121.183 26.0607 120.432 26.0607C119.896 26.0607 119.374 26.0639 118.866 26.0703C118.358 26.0767 117.901 26.0855 117.495 26.0982C117.531 26.7386 117.632 27.3176 117.795 27.8344C117.958 28.352 118.183 28.7939 118.468 29.1599C118.755 29.526 119.102 29.8083 119.512 30.0053C119.922 30.2023 120.385 30.3012 120.903 30.3012C121.26 30.3012 121.596 30.2597 121.914 30.1768C122.231 30.0938 122.519 29.9782 122.777 29.8307C123.036 29.6831 123.267 29.5092 123.471 29.3091C123.674 29.1089 123.846 28.892 123.988 28.6575L124.099 28.7125L123.416 30.357C123.083 30.5293 122.686 30.676 122.224 30.7957C121.764 30.9145 121.21 30.9751 120.563 30.9751ZM119.335 25.3406C119.95 25.3406 120.568 25.339 121.186 25.3358C121.805 25.3326 122.368 25.3222 122.872 25.3031C122.817 24.7671 122.712 24.287 122.558 23.8619C122.404 23.4369 122.207 23.0772 121.967 22.7813C121.727 22.4854 121.444 22.2581 121.117 22.0978C120.791 21.9375 120.43 21.8577 120.036 21.8577C119.679 21.8577 119.351 21.9359 119.052 22.093C118.753 22.2501 118.493 22.4766 118.271 22.7717C118.05 23.0676 117.871 23.4289 117.736 23.8572C117.6 24.2854 117.52 24.7735 117.495 25.3214C117.772 25.3342 118.065 25.3398 118.373 25.3398C118.681 25.3406 119.002 25.3406 119.335 25.3406Z" fill="#4F4F4E"/>
<path d="M17.0973 10.413C17.1129 10.3307 17.1154 10.2863 17.1154 10.2863L17.0973 10.413Z" fill="#8EACCB"/>
<path opacity="0.55" d="M23.5434 36L20.6546 35.519C21.5328 35.7476 22.4941 35.9194 23.5434 36Z" fill="#8EACCB"/>
<path d="M20.972 0C20.972 0 29.2494 7.54965 23.0221 15.2292C24.4356 18.6648 23.0903 22.8323 20.6505 26.9998C16.793 33.589 23.5434 36 23.5434 36C23.5434 36 18.0791 31.821 26.7578 22.3389C35.4365 12.8568 27.5612 1.44645 20.972 0Z" fill="url(#paint0_linear)"/>
<path d="M8.11519 14.1429C13.8714 12.9185 16.2659 11.2278 17.08 10.4927C17.0866 10.4631 17.0924 10.436 17.0973 10.4129L17.1154 10.2863C17.1154 10.2863 17.1129 10.3307 17.0973 10.4129L17.0866 10.4869C17.3358 10.2608 17.4369 10.1251 17.4369 10.1251C20.449 11.4836 22.2014 13.2326 23.0229 15.2292C29.2502 7.54964 20.9729 0 20.9729 0C20.9729 0 22.0978 4.17899 11.6511 6.58919C5.09483 8.10224 -0.447552 13.6668 0.0285666 19.6672C0.802362 17.6929 2.86966 15.2588 8.11519 14.1429Z" fill="url(#paint1_linear)"/>
<path d="M20.6505 27.0006C23.0903 22.8331 24.4356 18.6657 23.022 15.23C22.0953 16.3731 20.8495 17.5194 19.204 18.6435C17.8226 19.5883 10.6175 26.1931 9.56079 27.0006L14.0605 31.8218C14.0605 31.8218 16.2906 34.3825 20.6538 35.5189L23.5426 36C23.5434 36 16.7938 33.5898 20.6505 27.0006Z" fill="url(#paint2_linear)"/>
<path d="M17.4369 10.1251C17.4369 10.1251 17.3366 10.2608 17.0866 10.4869L15.5579 21.2691C16.6146 20.4616 17.8226 19.5875 19.2049 18.6426C20.8503 17.5177 22.0953 16.3722 23.0229 15.2292C22.2006 13.2335 20.449 11.4836 17.4369 10.1251Z" fill="#1E1E1E"/>
<path d="M8.27556 30.0539C8.27556 30.0539 5.86455 23.625 13.5795 21.0537C13.5795 21.0537 8.27557 18.4823 5.06197 22.1786C5.06197 22.1786 3.77587 18.8038 10.3659 16.0713C15.9395 13.7606 16.9131 11.2205 17.0809 10.4919C16.266 11.2279 13.8714 12.9177 8.11604 14.1421C2.87051 15.258 0.803215 17.692 0.0294189 19.6672C0.31065 23.2279 2.71016 26.9422 8.27556 30.0539Z" fill="url(#paint3_linear)"/>
<path d="M12.8049 26.6832L12.7646 26.7506C13.0836 26.3304 13.5425 26.2211 14.1214 26.3543C15.1032 26.6149 18.552 27.9635 18.1737 25.874C18.0578 25.2935 17.8251 25.0188 18.3349 24.5361C18.6745 24.2138 19.1112 24.1513 18.7822 23.6168C18.6186 23.3495 18.6622 23.2023 18.987 23.0173C19.3587 22.7813 19.2773 22.6481 19.0487 22.2073C18.4599 21.1466 19.4072 20.9599 19.8915 20.5849C20.3463 20.2206 20.1974 19.8169 19.8825 19.4082C19.6999 19.1804 19.547 18.9428 19.3644 18.715C18.7633 17.8877 18.5109 17.2924 18.3925 16.6156L19.3587 16.1263L18.3374 16.1107C18.413 13.9209 18.8308 12.6825 17.4509 10.1819L17.3555 10.1054C17.3555 10.1054 15.817 12.9506 9.1283 15.952C2.43961 18.9535 4.54391 23.5239 4.54391 23.5239C4.54391 23.5239 5.33662 18.6311 13.008 20.5463L12.957 20.6672C11.7071 21.2008 5.17298 24.2212 8.14152 29.979C8.16866 30.0308 8.74017 30.502 9.43173 30.9444C11.0714 31.9945 12.8155 32.8736 14.6353 33.5676L17.483 34.653L20.4425 35.523C17.5521 34.6407 10.111 30.456 12.8049 26.6832Z" fill="white"/>
<defs>
<linearGradient id="paint0_linear" x1="25.0249" y1="0.000197355" x2="25.0249" y2="36.0003" gradientUnits="userSpaceOnUse">
<stop offset="0.6842" stop-color="#878786"/>
<stop offset="0.8732" stop-color="#343433"/>
<stop offset="1"/>
</linearGradient>
<linearGradient id="paint1_linear" x1="0.301303" y1="20.1409" x2="25.0532" y2="5.85038" gradientUnits="userSpaceOnUse">
<stop offset="0.6842" stop-color="#878786"/>
<stop offset="0.8732" stop-color="#343433"/>
<stop offset="1"/>
</linearGradient>
<linearGradient id="paint2_linear" x1="16.5794" y1="15.2293" x2="16.5794" y2="36.0003" gradientUnits="userSpaceOnUse">
<stop stop-color="#878786"/>
<stop offset="0.5984" stop-color="#343433"/>
<stop offset="1"/>
</linearGradient>
<linearGradient id="paint3_linear" x1="2.94118" y1="26.9771" x2="13.6139" y2="8.49144" gradientUnits="userSpaceOnUse">
<stop stop-color="#373735"/>
<stop offset="0.0264" stop-color="#4A4A48"/>
<stop offset="0.0815" stop-color="#6C6C6B"/>
<stop offset="0.1337" stop-color="#858584"/>
<stop offset="0.1812" stop-color="#949493"/>
<stop offset="0.2199" stop-color="#999998"/>
<stop offset="0.3025" stop-color="#7F7F7E"/>
<stop offset="0.4638" stop-color="#525251"/>
<stop offset="0.6189" stop-color="#2E2E2E"/>
<stop offset="0.764" stop-color="#151515"/>
<stop offset="0.8951" stop-color="#050505"/>
<stop offset="1"/>
</linearGradient>
</defs>
</svg>
