<svg width="221" height="260" viewBox="0 0 221 260" fill="none" xmlns="http://www.w3.org/2000/svg">
<path d="M123.524 75.2046C123.637 74.6107 123.655 74.29 123.655 74.29L123.524 75.2046Z" fill="#8EACCB"/>
<path opacity="0.55" d="M170.096 260L149.225 256.526C155.57 258.177 162.515 259.418 170.096 260Z" fill="#8EACCB"/>
<path d="M151.519 0C151.519 0 211.321 54.5252 166.33 109.989C176.542 134.802 166.823 164.9 149.196 194.998C121.326 242.587 170.096 260 170.096 260C170.096 260 130.618 229.818 193.32 161.337C256.021 92.855 199.124 10.4466 151.519 0Z" fill="url(#paint0_linear)"/>
<path d="M58.6306 102.143C100.218 93.3004 117.518 81.09 123.4 75.7806C123.447 75.5668 123.489 75.3708 123.524 75.2045L123.655 74.2899C123.655 74.2899 123.637 74.6106 123.524 75.2045L123.447 75.739C125.247 74.1058 125.978 73.1259 125.978 73.1259C147.74 82.937 160.4 95.5691 166.336 109.989C211.327 54.5252 151.525 0 151.525 0C151.525 0 159.652 30.1816 84.177 47.5886C36.8091 58.5162 -3.23347 98.7048 0.206388 142.041C5.7969 127.782 20.7327 110.203 58.6306 102.143Z" fill="url(#paint1_linear)"/>
<path d="M149.195 195.004C166.823 164.906 176.542 134.808 166.329 109.995C159.634 118.25 150.633 126.529 138.745 134.647C128.764 141.471 76.7089 189.172 69.0747 195.004L101.584 229.824C101.584 229.824 117.696 248.318 149.219 256.526L170.09 260C170.096 260 121.332 242.593 149.195 195.004Z" fill="url(#paint2_linear)"/>
<path d="M125.978 73.1259C125.978 73.1259 125.253 74.1058 123.447 75.739L112.403 153.61C120.037 147.778 128.764 141.465 138.751 134.641C150.639 126.517 159.634 118.244 166.336 109.989C160.395 95.575 147.74 82.9369 125.978 73.1259Z" fill="#1E1E1E"/>
<path d="M59.7891 217.056C59.7891 217.056 42.37 170.625 98.1088 152.054C98.1088 152.054 59.7891 133.483 36.5716 160.179C36.5716 160.179 27.2798 135.805 74.8912 116.07C115.16 99.3818 122.194 81.0365 123.406 75.7747C117.518 81.09 100.218 93.2945 58.6366 102.138C20.7387 110.197 5.80292 127.776 0.212402 142.041C2.24424 167.757 19.5802 194.583 59.7891 217.056Z" fill="url(#paint3_linear)"/>
<path d="M92.5123 192.712L92.2212 193.199C94.5263 190.164 97.8414 189.374 102.024 190.336C109.118 192.219 134.034 201.959 131.301 186.868C130.464 182.675 128.782 180.692 132.466 177.205C134.919 174.877 138.074 174.426 135.698 170.566C134.515 168.636 134.83 167.572 137.177 166.236C139.862 164.532 139.274 163.57 137.623 160.386C133.369 152.725 140.213 151.377 143.712 148.669C146.998 146.038 145.922 143.122 143.647 140.17C142.328 138.525 141.223 136.809 139.904 135.164C135.561 129.189 133.737 124.889 132.882 120.002L139.862 116.468L132.484 116.355C133.03 100.54 136.048 91.5959 126.079 73.5356L125.39 72.9833C125.39 72.9833 114.274 93.532 65.9499 115.209C17.6255 136.886 32.8287 169.895 32.8287 169.895C32.8287 169.895 38.5558 134.558 93.9797 148.39L93.6114 149.263C84.581 153.117 37.3735 174.931 58.8207 216.515C59.0167 216.889 63.1458 220.292 68.1422 223.487C79.9886 231.071 92.5896 237.42 105.737 242.433L126.311 250.272L147.693 256.555C126.81 250.183 73.0495 219.96 92.5123 192.712Z" fill="white"/>
<defs>
<linearGradient id="paint0_linear" x1="180.799" y1="0.00142534" x2="180.799" y2="260.002" gradientUnits="userSpaceOnUse">
<stop offset="0.6842" stop-color="#878786"/>
<stop offset="0.8732" stop-color="#343433"/>
<stop offset="1"/>
</linearGradient>
<linearGradient id="paint1_linear" x1="2.17685" y1="145.462" x2="180.973" y2="42.1975" gradientUnits="userSpaceOnUse">
<stop offset="0.6842" stop-color="#878786"/>
<stop offset="0.8732" stop-color="#343433"/>
<stop offset="1"/>
</linearGradient>
<linearGradient id="paint2_linear" x1="119.783" y1="109.989" x2="119.783" y2="260.002" gradientUnits="userSpaceOnUse">
<stop stop-color="#878786"/>
<stop offset="0.5984" stop-color="#343433"/>
<stop offset="1"/>
</linearGradient>
<linearGradient id="paint3_linear" x1="21.2493" y1="194.834" x2="98.316" y2="61.3032" gradientUnits="userSpaceOnUse">
<stop stop-color="#373735"/>
<stop offset="0.0264" stop-color="#4A4A48"/>
<stop offset="0.0815" stop-color="#6C6C6B"/>
<stop offset="0.1337" stop-color="#858584"/>
<stop offset="0.1812" stop-color="#949493"/>
<stop offset="0.2199" stop-color="#999998"/>
<stop offset="0.3025" stop-color="#7F7F7E"/>
<stop offset="0.4638" stop-color="#525251"/>
<stop offset="0.6189" stop-color="#2E2E2E"/>
<stop offset="0.764" stop-color="#151515"/>
<stop offset="0.8951" stop-color="#050505"/>
<stop offset="1"/>
</linearGradient>
</defs>
</svg>
