<svg width="24" height="24" viewBox="0 0 24 24" fill="none" xmlns="http://www.w3.org/2000/svg">
<circle cx="12" cy="12" r="12" fill="white"/>
<circle cx="12" cy="12" r="11.5" stroke="black" stroke-opacity="0.12"/>
<path d="M12 14.1333C13.1782 14.1333 14.1333 13.1782 14.1333 12C14.1333 10.8218 13.1782 9.86667 12 9.86667C10.8218 9.86667 9.86666 10.8218 9.86666 12C9.86666 13.1782 10.8218 14.1333 12 14.1333Z" fill="black"/>
<path d="M10 5.33333L8.78 6.66666H6.66667C5.93333 6.66666 5.33333 7.26666 5.33333 7.99999V16C5.33333 16.7333 5.93333 17.3333 6.66667 17.3333H17.3333C18.0667 17.3333 18.6667 16.7333 18.6667 16V7.99999C18.6667 7.26666 18.0667 6.66666 17.3333 6.66666H15.22L14 5.33333H10ZM12 15.3333C10.16 15.3333 8.66667 13.84 8.66667 12C8.66667 10.16 10.16 8.66666 12 8.66666C13.84 8.66666 15.3333 10.16 15.3333 12C15.3333 13.84 13.84 15.3333 12 15.3333Z" fill="black"/>
</svg>
