<svg width="108" height="108" viewBox="0 0 108 108" fill="none" xmlns="http://www.w3.org/2000/svg">
<circle cx="54" cy="54" r="54" fill="#C4C4C4"/>
<path d="M54 0C24.192 0 0 24.192 0 54C0 83.808 24.192 108 54 108C83.808 108 108 83.808 108 54C108 24.192 83.808 0 54 0ZM54 16.2C62.964 16.2 70.2 23.436 70.2 32.4C70.2 41.364 62.964 48.6 54 48.6C45.036 48.6 37.8 41.364 37.8 32.4C37.8 23.436 45.036 16.2 54 16.2ZM54 92.88C40.5 92.88 28.566 85.968 21.6 75.492C21.762 64.746 43.2 58.86 54 58.86C64.746 58.86 86.238 64.746 86.4 75.492C79.434 85.968 67.5 92.88 54 92.88Z" fill="black" fill-opacity="0.12"/>
</svg>
