<svg width="40" height="40" viewBox="0 0 40 40" fill="none" xmlns="http://www.w3.org/2000/svg">
<path d="M20 25.3334C22.9455 25.3334 25.3333 22.9455 25.3333 20C25.3333 17.0545 22.9455 14.6667 20 14.6667C17.0544 14.6667 14.6666 17.0545 14.6666 20C14.6666 22.9455 17.0544 25.3334 20 25.3334Z" fill="#3374DE" fill-opacity="0.6"/>
<path d="M15 3.3334L11.95 6.66674H6.66665C4.83331 6.66674 3.33331 8.16674 3.33331 10.0001V30.0001C3.33331 31.8334 4.83331 33.3334 6.66665 33.3334H33.3333C35.1667 33.3334 36.6667 31.8334 36.6667 30.0001V10.0001C36.6667 8.16674 35.1667 6.66674 33.3333 6.66674H28.05L25 3.3334H15ZM20 28.3334C15.4 28.3334 11.6666 24.6001 11.6666 20.0001C11.6666 15.4001 15.4 11.6667 20 11.6667C24.6 11.6667 28.3333 15.4001 28.3333 20.0001C28.3333 24.6001 24.6 28.3334 20 28.3334Z" fill="#3374DE" fill-opacity="0.6"/>
</svg>
