<svg width="44" height="44" viewBox="0 0 44 44" fill="none" xmlns="http://www.w3.org/2000/svg">
<path d="M22 44C34.1503 44 44 34.1503 44 22C44 9.84974 34.1503 0 22 0C9.84974 0 0 9.84974 0 22C0 34.1503 9.84974 44 22 44Z" fill="white" fill-opacity="0.84"/>
<path d="M22 43.5C33.8741 43.5 43.5 33.8741 43.5 22C43.5 10.1259 33.8741 0.5 22 0.5C10.1259 0.5 0.5 10.1259 0.5 22C0.5 33.8741 10.1259 43.5 22 43.5Z" stroke="black" stroke-opacity="0.12"/>
<path d="M21.6666 25.5778C23.8267 25.5778 25.5777 23.8268 25.5777 21.6667C25.5777 19.5067 23.8267 17.7556 21.6666 17.7556C19.5066 17.7556 17.7555 19.5067 17.7555 21.6667C17.7555 23.8268 19.5066 25.5778 21.6666 25.5778Z" fill="black"/>
<path d="M18 9.44446L15.7633 11.8889H11.8889C10.5444 11.8889 9.44443 12.9889 9.44443 14.3333V29C9.44443 30.3445 10.5444 31.4445 11.8889 31.4445H31.4444C32.7889 31.4445 33.8889 30.3445 33.8889 29V14.3333C33.8889 12.9889 32.7889 11.8889 31.4444 11.8889H27.57L25.3333 9.44446H18ZM21.6667 27.7778C18.2933 27.7778 15.5555 25.04 15.5555 21.6667C15.5555 18.2933 18.2933 15.5556 21.6667 15.5556C25.04 15.5556 27.7778 18.2933 27.7778 21.6667C27.7778 25.04 25.04 27.7778 21.6667 27.7778Z" fill="black"/>
</svg>
