<svg width="42" height="42" viewBox="0 0 42 42" fill="none" xmlns="http://www.w3.org/2000/svg">
<path d="M37 15H19C16.7909 15 15 16.7909 15 19V37C15 39.2091 16.7909 41 19 41H37C39.2091 41 41 39.2091 41 37V19C41 16.7909 39.2091 15 37 15Z" stroke="#3374DE" stroke-width="2" stroke-linecap="round" stroke-linejoin="round"/>
<path d="M7 27H5C3.93913 27 2.92172 26.5786 2.17157 25.8284C1.42143 25.0783 1 24.0609 1 23V5C1 3.93913 1.42143 2.92172 2.17157 2.17157C2.92172 1.42143 3.93913 1 5 1H23C24.0609 1 25.0783 1.42143 25.8284 2.17157C26.5786 2.92172 27 3.93913 27 5V7" stroke="#3374DE" stroke-width="2" stroke-linecap="round" stroke-linejoin="round"/>
</svg>
