<svg width="22" height="22" viewBox="0 0 22 22" fill="none" xmlns="http://www.w3.org/2000/svg">
<path d="M16 1H6C3.23858 1 1 3.23858 1 6V16C1 18.7614 3.23858 21 6 21H16C18.7614 21 21 18.7614 21 16V6C21 3.23858 18.7614 1 16 1Z" stroke="#3374DE" stroke-width="2" stroke-linecap="round" stroke-linejoin="round"/>
<path d="M15 10.4133C15.1234 11.2455 14.9813 12.0955 14.5938 12.8423C14.2063 13.5891 13.5932 14.1947 12.8416 14.5729C12.0901 14.9512 11.2385 15.0829 10.4078 14.9492C9.57714 14.8155 8.80977 14.4234 8.21485 13.8284C7.61993 13.2335 7.22774 12.4661 7.09408 11.6355C6.96042 10.8048 7.09208 9.95316 7.47034 9.20164C7.8486 8.45012 8.4542 7.83701 9.201 7.44951C9.9478 7.06201 10.7978 6.91986 11.63 7.04327C12.4789 7.16915 13.2649 7.56473 13.8717 8.17158C14.4785 8.77842 14.8741 9.56435 15 10.4133Z" stroke="#3374DE" stroke-width="2" stroke-linecap="round" stroke-linejoin="round"/>
<path d="M16.5 11H16.51" stroke="#3374DE" stroke-width="2" stroke-linecap="round" stroke-linejoin="round"/>
</svg>
