<svg width="24" height="24" viewBox="0 0 24 24" fill="none" xmlns="http://www.w3.org/2000/svg">
<path d="M4.88235 8.33327C7.02652 8.33327 8.76471 6.69166 8.76471 4.66664C8.76471 2.64161 7.02652 1 4.88235 1C2.73819 1 1 2.64161 1 4.66664C1 6.69166 2.73819 8.33327 4.88235 8.33327Z" stroke="#3374DE" stroke-width="2" stroke-linecap="round" stroke-linejoin="round"/>
<path d="M4.88235 23.0001C7.02652 23.0001 8.76471 21.3585 8.76471 19.3334C8.76471 17.3084 7.02652 15.6668 4.88235 15.6668C2.73819 15.6668 1 17.3084 1 19.3334C1 21.3585 2.73819 23.0001 4.88235 23.0001Z" stroke="#3374DE" stroke-width="2" stroke-linecap="round" stroke-linejoin="round"/>
<path d="M23 2.22266L7.62589 16.7425" stroke="#3374DE" stroke-width="2" stroke-linecap="round" stroke-linejoin="round"/>
<path d="M15.8435 15.0308L23 21.7774" stroke="#3374DE" stroke-width="2" stroke-linecap="round" stroke-linejoin="round"/>
<path d="M7.62589 7.25781L12.6471 12" stroke="#3374DE" stroke-width="2" stroke-linecap="round" stroke-linejoin="round"/>
</svg>
