<svg width="17" height="17" viewBox="0 0 17 17" fill="none" xmlns="http://www.w3.org/2000/svg">
<path d="M14.5856 9.32875C14.6174 9.06312 14.6387 8.78687 14.6387 8.5C14.6387 8.21313 14.6174 7.93688 14.5749 7.67125L16.3706 6.26875C16.5299 6.14125 16.5724 5.9075 16.4768 5.72687L14.7768 2.78375C14.6706 2.5925 14.4474 2.52875 14.2562 2.5925L12.1418 3.4425C11.6956 3.1025 11.2281 2.82625 10.7074 2.61375L10.3887 0.36125C10.3568 0.14875 10.1762 0 9.9637 0H6.56369C6.35119 0 6.1812 0.14875 6.14932 0.36125L5.83057 2.61375C5.30995 2.82625 4.83182 3.11312 4.3962 3.4425L2.28182 2.5925C2.09057 2.51813 1.86745 2.5925 1.7612 2.78375L0.0611951 5.72687C-0.0450549 5.91812 -0.00255479 6.14125 0.167445 6.26875L1.96307 7.67125C1.92057 7.93688 1.8887 8.22375 1.8887 8.5C1.8887 8.77625 1.90995 9.06312 1.95245 9.32875L0.15682 10.7313C-0.00255505 10.8588 -0.0450549 11.0925 0.0505701 11.2731L1.75057 14.2163C1.85682 14.4075 2.07995 14.4713 2.2712 14.4075L4.38557 13.5575C4.83182 13.8975 5.29932 14.1737 5.81994 14.3862L6.1387 16.6388C6.1812 16.8512 6.35119 17 6.56369 17H9.9637C10.1762 17 10.3568 16.8512 10.3781 16.6388L10.6968 14.3862C11.2174 14.1737 11.6956 13.8869 12.1312 13.5575L14.2456 14.4075C14.4368 14.4819 14.6599 14.4075 14.7662 14.2163L16.4662 11.2731C16.5724 11.0819 16.5299 10.8588 16.3599 10.7313L14.5856 9.32875ZM8.26369 11.6875C6.51057 11.6875 5.0762 10.2531 5.0762 8.5C5.0762 6.74687 6.51057 5.3125 8.26369 5.3125C10.0168 5.3125 11.4512 6.74687 11.4512 8.5C11.4512 10.2531 10.0168 11.6875 8.26369 11.6875Z" fill="#3374DE"/>
</svg>
