<svg width="17" height="17" viewBox="0 0 17 17" fill="none" xmlns="http://www.w3.org/2000/svg">
<path d="M14.0891 9.26918L14.0558 9.54731L14.2755 9.72101L15.9986 11.083L14.3624 13.9156L12.3177 13.0936L12.0553 12.9881L11.8296 13.1587C11.4227 13.4664 10.982 13.7298 10.5079 13.9233L10.242 14.0318L10.2018 14.3162L9.89272 16.5H6.62404L6.31501 14.3162L6.27478 14.0318L6.00889 13.9233C5.53326 13.7292 5.10371 13.4761 4.68859 13.1598L4.46264 12.9876L4.19907 13.0936L2.15432 13.9156L0.518349 11.0833L2.26022 9.7228L2.49279 9.54115L2.44617 9.24975C2.40819 9.01238 2.3887 8.75204 2.3887 8.5C2.3887 8.25963 2.41666 8.00108 2.45679 7.75025L2.50341 7.45885L2.27085 7.2772L0.528974 5.91669L2.16495 3.08441L4.2097 3.90642L4.47213 4.01192L4.69775 3.84133C5.1047 3.53363 5.54539 3.2702 6.01952 3.07667L6.2854 2.96815L6.32564 2.68381L6.63467 0.5H9.90335L10.2124 2.68381L10.2526 2.96815L10.5185 3.07667C10.9941 3.27081 11.4237 3.52393 11.8388 3.84022L12.0648 4.01237L12.3283 3.90642L14.3731 3.08441L16.009 5.91669L14.2672 7.2772L14.0346 7.45885L14.0812 7.75025C14.1193 7.98809 14.1387 8.23784 14.1387 8.5C14.1387 8.76227 14.1193 9.01804 14.0891 9.26918ZM4.5762 8.5C4.5762 10.5293 6.23443 12.1875 8.26369 12.1875C10.293 12.1875 11.9512 10.5293 11.9512 8.5C11.9512 6.47073 10.293 4.8125 8.26369 4.8125C6.23443 4.8125 4.5762 6.47073 4.5762 8.5Z" stroke="#666666"/>
</svg>
