<svg width="22" height="24" viewBox="0 0 22 24" fill="none" xmlns="http://www.w3.org/2000/svg">
<path d="M17.5 7.6C19.3226 7.6 20.8 6.12254 20.8 4.3C20.8 2.47746 19.3226 1 17.5 1C15.6775 1 14.2 2.47746 14.2 4.3C14.2 6.12254 15.6775 7.6 17.5 7.6Z" stroke="#3374DE" stroke-width="2" stroke-linecap="round" stroke-linejoin="round"/>
<path d="M4.3 15.3C6.12254 15.3 7.6 13.8225 7.6 12C7.6 10.1775 6.12254 8.7 4.3 8.7C2.47746 8.7 1 10.1775 1 12C1 13.8225 2.47746 15.3 4.3 15.3Z" stroke="#3374DE" stroke-width="2" stroke-linecap="round" stroke-linejoin="round"/>
<path d="M17.5 23C19.3226 23 20.8 21.5225 20.8 19.7C20.8 17.8775 19.3226 16.4 17.5 16.4C15.6775 16.4 14.2 17.8775 14.2 19.7C14.2 21.5225 15.6775 23 17.5 23Z" stroke="#3374DE" stroke-width="2" stroke-linecap="round" stroke-linejoin="round"/>
<path d="M7.14902 13.661L14.662 18.039" stroke="#3374DE" stroke-width="2" stroke-linecap="round" stroke-linejoin="round"/>
<path d="M14.651 5.96099L7.14902 10.339" stroke="#3374DE" stroke-width="2" stroke-linecap="round" stroke-linejoin="round"/>
</svg>
